<svg width="34" height="34" viewBox="0 0 34 34" fill="none" xmlns="http://www.w3.org/2000/svg">
<g clip-path="url(#clip0_535_10814)">
<path d="M11.5451 25.4853L16.6969 20.3335C16.7772 20.2531 16.8862 20.208 16.9999 20.208C17.1136 20.208 17.2226 20.2531 17.3029 20.3335L22.4547 25.4853C23.2915 26.3221 24.6484 26.3221 25.4852 25.4853C26.322 24.6485 26.322 23.2916 25.4852 22.4548L20.3334 17.303C20.253 17.2227 20.2079 17.1137 20.2079 17C20.2079 16.8863 20.253 16.7773 20.3334 16.697L25.4852 11.5452C26.322 10.7084 26.322 9.3515 25.4852 8.51472C24.6484 7.67793 23.2915 7.67793 22.4547 8.51472L17.3029 13.6665C17.2226 13.7469 17.1136 13.792 16.9999 13.792C16.8862 13.792 16.7772 13.7469 16.6969 13.6665L11.5451 8.51472C10.7083 7.67793 9.3514 7.67793 8.51462 8.51472C7.67783 9.3515 7.67783 10.7084 8.51461 11.5452L13.6664 16.697C13.7468 16.7773 13.7919 16.8863 13.7919 17C13.7919 17.1137 13.7468 17.2227 13.6664 17.303L8.51461 22.4548C7.67783 23.2916 7.67783 24.6485 8.51462 25.4853C9.3514 26.3221 10.7083 26.3221 11.5451 25.4853Z" fill="white"/>
</g>
<defs>
<clipPath id="clip0_535_10814">
<rect width="24" height="24" fill="white" transform="translate(33.9705 17) rotate(135)"/>
</clipPath>
</defs>
</svg>
