<svg width="24" height="24" viewBox="0 0 24 24" fill="none" xmlns="http://www.w3.org/2000/svg">
<g clip-path="url(#clip0_779_28634)">
<path d="M0.746704 16.1733C2.44204 20.7433 6.84004 23.9999 12 23.9999C17.16 23.9999 21.558 20.7433 23.2534 16.1733L12 15.1306L0.746704 16.1733Z" fill="#FFDA44"/>
<path d="M12 0C6.84004 0 2.44204 3.25667 0.746704 7.82667L12 8.86933L23.2534 7.826C21.558 3.25667 17.16 0 12 0Z" fill="#3D3D3D"/>
<path d="M0.746673 7.82659C0.251517 9.16222 -0.00133462 10.5755 5.94695e-06 11.9999C-0.00141395 13.4246 0.251439 14.8381 0.746673 16.1739H23.2533C23.7486 14.8381 24.0014 13.4246 24 11.9999C24.0014 10.5753 23.7486 9.16176 23.2533 7.82593L0.746673 7.82659Z" fill="#D80027"/>
</g>
<defs>
<clipPath id="clip0_779_28634">
<rect width="24" height="24" fill="white"/>
</clipPath>
</defs>
</svg>
