<svg width="24" height="24" viewBox="0 0 24 24" fill="none" xmlns="http://www.w3.org/2000/svg">
<path d="M13.358 14.1287L16.0577 14.5989C16.2642 14.6348 16.458 14.7231 16.6206 14.8554C16.7832 14.9876 16.9091 15.1594 16.9864 15.3542L18.5909 19.4063C18.8398 20.0351 18.5322 20.7468 17.9032 20.9957C17.7598 21.0527 17.6069 21.0819 17.4526 21.0817C16.9654 21.0817 16.5045 20.7889 16.3139 20.3079L14.962 16.8941H12.0778" fill="#373737"/>
<path d="M6.87805 13.8919V11.9876C6.87805 10.1166 8.39493 8.59961 10.2659 8.59961C11.2014 8.59961 12.0482 8.97883 12.6614 9.59205C13.2747 10.2053 13.6539 11.0521 13.6539 11.9876V15.2965" fill="#CF54DF"/>
<path d="M17.7607 21.0416C17.6584 21.0691 17.5549 21.0817 17.4525 21.0817C16.9653 21.0817 16.5044 20.7889 16.3138 20.3079L14.9619 16.894C15.1444 16.894 15.3227 16.9489 15.4737 17.0514C15.6246 17.154 15.7413 17.2995 15.8085 17.4692L16.9325 20.3079C17.0817 20.6845 17.3967 20.9462 17.7607 21.0416Z" fill="#C7C7C7"/>
<path d="M11.0397 8.68839C9.54154 9.03855 8.4253 10.3825 8.4253 11.9876V14.0118L6.87805 13.8919V11.9876C6.87805 10.1166 8.39493 8.59961 10.2659 8.59961C10.5323 8.59961 10.7914 8.63055 11.0397 8.68839Z" fill="#BE0ED5"/>
<path d="M12.3067 2.58112C13.106 3.19434 13.6213 4.15912 13.6213 5.24456C13.6213 7.09795 12.1191 8.60015 10.2657 8.60015C8.41285 8.60015 6.91064 7.09795 6.91064 5.24456V2.85942L9.08082 1.15894L12.3067 2.58112Z" fill="#FFC48F"/>
<path d="M11.0154 8.51667C10.7694 8.57243 10.5181 8.6005 10.2659 8.60034C8.41309 8.60034 6.91089 7.09814 6.91089 5.24475V2.85942L9.08106 1.15894L10.0401 1.58151L8.40958 2.85942V5.24475C8.40958 6.84051 9.52286 8.1757 11.0154 8.51662V8.51667Z" fill="#E59A5C"/>
<path d="M15.1652 18.4172C15.1652 21.5005 12.6658 23.9999 9.58272 23.9999C6.49937 23.9999 4 21.5005 4 18.4172C4 15.3341 6.49937 12.8347 9.58272 12.8347C12.6658 12.8347 15.1652 15.3341 15.1652 18.4172V18.4172Z" fill="#1E1E1E"/>
<path d="M13.7498 18.4173C13.7498 20.719 11.8842 22.5847 9.58273 22.5847C7.28126 22.5847 5.41541 20.719 5.41541 18.4173C5.41541 16.1159 7.28126 14.2502 9.58273 14.2502C11.8842 14.2502 13.7498 16.1159 13.7498 18.4173Z" fill="#E3E3E3"/>
<path d="M10.3569 18.4173C10.3569 18.845 10.0103 19.1917 9.58276 19.1917C9.15522 19.1917 8.80839 18.845 8.80839 18.4173C8.80839 17.9898 9.15522 17.6431 9.58276 17.6431C10.0103 17.6431 10.3569 17.9897 10.3569 18.4173ZM6.91089 2.85938V5.2447C7.85533 5.2447 8.62108 4.47895 8.62108 3.53447V2.67131H11.618C13.0932 2.67131 14.2891 1.4753 14.2891 0H9.77008C8.19095 0 6.91089 1.28011 6.91089 2.85938Z" fill="#6D6D6D"/>
<path d="M11.6312 0C10.1153 0 8.8748 1.17994 8.77828 2.67131H8.62102V3.53428C8.62102 4.00706 8.42949 4.43409 8.12007 4.7437C7.81041 5.05317 7.38343 5.2447 6.91064 5.2447V2.85938C6.91064 1.28025 8.19089 0 9.77002 0H11.6312ZM10.8361 5.05828C10.7878 5.05829 10.74 5.04879 10.6955 5.03033C10.6509 5.01188 10.6104 4.98482 10.5763 4.95071C10.5422 4.9166 10.5151 4.87611 10.4967 4.83154C10.4782 4.78697 10.4687 4.73921 10.4687 4.69097V3.90909C10.4687 3.86086 10.4782 3.8131 10.4967 3.76854C10.5152 3.72397 10.5422 3.68349 10.5763 3.64938C10.6104 3.61528 10.6509 3.58822 10.6955 3.56977C10.7401 3.55132 10.7878 3.54182 10.8361 3.54183C10.8843 3.54182 10.9321 3.55132 10.9766 3.56978C11.0212 3.58823 11.0617 3.61529 11.0958 3.6494C11.1299 3.68351 11.157 3.724 11.1754 3.76857C11.1939 3.81314 11.2034 3.8609 11.2034 3.90914V4.69102C11.2034 4.73925 11.1939 4.78701 11.1754 4.83157C11.1569 4.87613 11.1299 4.91662 11.0958 4.95073C11.0617 4.98483 11.0212 5.01188 10.9766 5.03034C10.932 5.04879 10.8843 5.05829 10.8361 5.05828ZM12.2042 5.05828C12.156 5.05828 12.1082 5.04878 12.0636 5.03032C12.0191 5.01186 11.9786 4.9848 11.9445 4.9507C11.9104 4.91659 11.8833 4.87609 11.8649 4.83153C11.8464 4.78697 11.8369 4.7392 11.8369 4.69097V3.90909C11.8369 3.81169 11.8756 3.71827 11.9445 3.6494C12.0134 3.58052 12.1068 3.54183 12.2042 3.54183C12.2524 3.54182 12.3002 3.55132 12.3448 3.56978C12.3893 3.58823 12.4298 3.61529 12.4639 3.6494C12.498 3.68351 12.5251 3.724 12.5436 3.76857C12.562 3.81314 12.5715 3.8609 12.5715 3.90914V4.69102C12.5715 4.73925 12.562 4.78701 12.5435 4.83157C12.5251 4.87613 12.498 4.91662 12.4639 4.95073C12.4298 4.98483 12.3893 5.01188 12.3448 5.03034C12.3002 5.04879 12.2524 5.05829 12.2042 5.05828Z" fill="#1E1E1E"/>
<path d="M9.32685 11.9878V14.5101L10.6051 15.7884C11.0834 16.2666 11.0834 17.0419 10.6051 17.5199C10.4916 17.6338 10.3566 17.7242 10.208 17.7857C10.0594 17.8473 9.9001 17.8789 9.73925 17.8787C9.57843 17.8789 9.41915 17.8473 9.27057 17.7857C9.12198 17.7242 8.98704 17.6339 8.87347 17.52L7.2366 15.8832C7.1229 15.7695 7.03272 15.6345 6.9712 15.4859C6.90968 15.3373 6.87803 15.1781 6.87805 15.0173V11.9878" fill="#FFC48F"/>
<path d="M10.351 17.715C10.1651 17.8224 9.95404 17.8788 9.7393 17.8785C9.42599 17.8785 9.11249 17.7591 8.87338 17.52L7.2366 15.8832C7.12288 15.7695 7.03268 15.6344 6.97116 15.4858C6.90964 15.3372 6.878 15.1779 6.87805 15.0171V11.9878H8.1014V15.0171C8.1014 15.3419 8.2303 15.6534 8.46008 15.8832L10.0969 17.52C10.1726 17.5959 10.2581 17.6615 10.351 17.715Z" fill="#E59A5C"/>
<path d="M19.4559 21.4492H13.6358C13.5393 21.4476 13.4474 21.4082 13.3797 21.3395C13.3121 21.2708 13.2742 21.1782 13.2742 21.0818C13.2742 20.9853 13.3121 20.8928 13.3797 20.824C13.4474 20.7553 13.5393 20.7159 13.6358 20.7144H19.4559C19.5534 20.7144 19.6468 20.7531 19.7157 20.822C19.7846 20.8909 19.8233 20.9843 19.8233 21.0818C19.8233 21.1792 19.7846 21.2727 19.7157 21.3416C19.6468 21.4105 19.5534 21.4492 19.4559 21.4492Z" fill="#1E1E1E"/>
<path d="M17.8257 22.5407C17.8257 23.3466 17.1724 23.9999 16.3665 23.9999C15.5607 23.9999 14.9073 23.3465 14.9073 22.5407C14.9073 21.7349 15.5607 21.0815 16.3666 21.0815C17.1723 21.0815 17.8257 21.7349 17.8257 22.5408L17.8257 22.5407Z" fill="#6D6D6D"/>
<path d="M16.3663 22.9081C16.213 22.9081 16.0724 22.8091 16.0208 22.6646C15.969 22.5192 16.0149 22.3533 16.1351 22.2557C16.3903 22.0484 16.7765 22.2707 16.7298 22.5948C16.7041 22.773 16.5458 22.9081 16.3663 22.9081Z" fill="#1E1E1E"/>
</svg>
