<svg width="24" height="24" viewBox="0 0 24 24" fill="none" xmlns="http://www.w3.org/2000/svg">
<g clip-path="url(#clip0_535_11008)">
<path d="M10.9895 5.26427C11.1864 5.26427 11.346 5.10475 11.346 4.90792V4.14934C11.346 4.05482 11.3085 3.96416 11.2416 3.89732C11.1748 3.83048 11.0841 3.79293 10.9896 3.79293C10.8951 3.79293 10.8044 3.83048 10.7376 3.89732C10.6707 3.96416 10.6332 4.05482 10.6332 4.14934V4.90792C10.6332 4.95472 10.6424 5.00106 10.6603 5.04429C10.6782 5.08753 10.7044 5.12681 10.7375 5.15991C10.7706 5.193 10.8099 5.21925 10.8531 5.23715C10.8963 5.25506 10.9427 5.26427 10.9895 5.26427H10.9895ZM12.317 5.26427C12.5139 5.26427 12.6735 5.10475 12.6735 4.90792V4.14934C12.674 4.10219 12.6652 4.05541 12.6476 4.01169C12.6299 3.96797 12.6037 3.9282 12.5706 3.89467C12.5374 3.86113 12.498 3.83451 12.4544 3.81634C12.4109 3.79817 12.3642 3.78882 12.3171 3.78882C12.2699 3.78882 12.2233 3.79817 12.1797 3.81634C12.1362 3.83451 12.0968 3.86113 12.0636 3.89467C12.0305 3.9282 12.0043 3.96797 11.9866 4.01169C11.969 4.05541 11.9601 4.10219 11.9607 4.14934V4.90792C11.9607 4.95472 11.9699 5.00106 11.9878 5.0443C12.0057 5.08754 12.0319 5.12683 12.065 5.15992C12.0981 5.19301 12.1374 5.21926 12.1806 5.23717C12.2239 5.25507 12.2702 5.26428 12.317 5.26427Z" fill="#373737"/>
<path d="M19.3534 20.4555H18.7109C18.7553 20.3858 18.7941 20.3128 18.827 20.237C18.9907 19.8584 18.9972 19.4386 18.8455 19.0548L17.2885 15.1229C17.0915 14.6268 16.6427 14.2617 16.1172 14.1704L14.08 13.8157V11.9881C14.08 11.2901 13.882 10.6121 13.5076 10.027C13.4824 9.98759 13.4496 9.95351 13.4113 9.92673C13.3729 9.89995 13.3296 9.88101 13.2839 9.87097C13.2382 9.86093 13.1909 9.86001 13.1448 9.86825C13.0988 9.87649 13.0548 9.89373 13.0154 9.91898C12.8495 10.025 12.8012 10.2455 12.9072 10.4114C13.2082 10.8814 13.3671 11.4267 13.3671 11.9881V13.7117C12.4066 12.9456 11.1973 12.479 9.88173 12.4546V11.1528C9.8796 11.0597 9.8411 10.9711 9.77448 10.9059C9.70786 10.8408 9.6184 10.8044 9.52525 10.8044C9.4321 10.8044 9.34264 10.8408 9.27602 10.9059C9.2094 10.9711 9.1709 11.0597 9.16877 11.1528V11.6316H7.52781C7.7043 10.183 8.94081 9.05714 10.4363 9.05714C10.9973 9.05714 11.5426 9.21623 12.0135 9.51727C12.0932 9.5681 12.1898 9.58524 12.2821 9.56492C12.3744 9.54461 12.4549 9.48849 12.5059 9.40889C12.5568 9.32922 12.574 9.23259 12.5536 9.14025C12.5333 9.04791 12.4771 8.96744 12.3975 8.91652C12.271 8.8358 12.1398 8.76296 12.0044 8.69841C13.2129 8.11359 14.0484 6.87525 14.0484 5.44519C14.0484 4.5172 13.7016 3.64781 13.0816 2.98463C14.0387 2.49684 14.6962 1.50239 14.6962 0.356484C14.6962 0.159656 14.5367 0 14.3399 0H9.95486C8.22883 0 6.82422 1.40437 6.82422 3.13078V5.44519C6.82422 6.87563 7.66009 8.1143 8.86895 8.69916C7.64214 9.28603 6.79253 10.5398 6.79253 11.9881V13.2819C5.06472 14.3249 4 16.2001 4 18.2267C4 21.41 6.58984 24 9.77331 24C11.8831 24 13.7317 22.8622 14.739 21.1685H14.9358C14.7068 21.4741 14.5832 21.8458 14.5835 22.2277C14.5835 23.205 15.3785 24 16.3558 24C17.333 24 18.128 23.205 18.128 22.2277C18.128 21.831 17.997 21.4642 17.7758 21.1685H19.3534C19.4469 21.167 19.5361 21.1287 19.6018 21.062C19.6674 20.9953 19.7041 20.9055 19.7041 20.812C19.7041 20.7184 19.6674 20.6286 19.6018 20.5619C19.5361 20.4952 19.4469 20.457 19.3534 20.4555L19.3534 20.4555ZM7.53719 3.13073C7.53719 1.79756 8.62197 0.712828 9.95514 0.712828H13.9551C13.7839 1.77666 12.8594 2.59186 11.7481 2.59186H8.84022C8.79341 2.59185 8.74706 2.60105 8.70381 2.61896C8.66056 2.63686 8.62126 2.6631 8.58815 2.69619C8.55505 2.72928 8.52878 2.76857 8.51086 2.81181C8.49293 2.85505 8.4837 2.9014 8.48369 2.9482V3.78586C8.48369 4.3808 8.08291 4.88395 7.53723 5.03925L7.53719 3.13073ZM7.55538 5.76638C8.48847 5.59022 9.1967 4.76934 9.1967 3.78591V3.30469H11.7481C11.9464 3.30469 12.14 3.28472 12.3272 3.24717C12.9701 3.79927 13.3356 4.59136 13.3356 5.44519C13.3356 7.04391 12.035 8.34469 10.4362 8.34469C8.94625 8.34469 7.71578 7.21434 7.55538 5.76638ZM16.6257 15.3856L18.1826 19.3173C18.2231 19.4188 18.2431 19.5273 18.2414 19.6366C18.2397 19.7459 18.2164 19.8537 18.1727 19.9539C18.1296 20.0544 18.067 20.1453 17.9884 20.2214C17.9099 20.2975 17.817 20.3572 17.7152 20.397C17.6179 20.4358 17.5142 20.4556 17.4095 20.4555C17.0662 20.4555 16.7627 20.2491 16.6361 19.9298C16.6361 19.9298 15.2302 16.3378 15.192 16.2345C14.9684 15.6287 14.6447 15.0647 14.2345 14.566L15.9951 14.8727C16.2782 14.922 16.5198 15.1186 16.6257 15.3856ZM9.27325 14.6874L10.5134 15.9278C10.8377 16.2521 10.8377 16.7798 10.5134 17.1039C10.4364 17.1814 10.3448 17.2428 10.2439 17.2846C10.1429 17.3265 10.0347 17.3479 9.92547 17.3476C9.8162 17.3479 9.70795 17.3266 9.607 17.2848C9.50604 17.243 9.41438 17.1816 9.33733 17.1041L7.74892 15.5158C7.67149 15.4387 7.61009 15.3471 7.56829 15.2461C7.52648 15.1452 7.5051 15.0369 7.50536 14.9277V12.3444H9.16872V14.4355C9.16872 14.53 9.20641 14.6206 9.27325 14.6874ZM9.77331 23.287C6.98298 23.287 4.71283 21.0168 4.71283 18.2267C4.71283 16.5992 5.49653 15.0835 6.79253 14.1376V14.9275C6.79253 14.9483 6.79328 14.9691 6.79398 14.9897C5.88911 15.8223 5.37348 16.9911 5.37348 18.2267C5.37348 19.1662 5.66533 20.0623 6.2178 20.818C6.25086 20.8633 6.2942 20.9002 6.34425 20.9256C6.39431 20.951 6.44967 20.9642 6.5058 20.9641C6.58132 20.9642 6.65489 20.9401 6.7158 20.8955C6.87475 20.7792 6.90953 20.5561 6.79328 20.3972C6.33095 19.7646 6.08631 19.014 6.08631 18.2267C6.08631 17.3071 6.42709 16.4314 7.03478 15.7581C7.0952 15.8526 7.16569 15.9403 7.24502 16.0197L8.83323 17.6082C9.12494 17.8998 9.51292 18.0604 9.92547 18.0604C10.338 18.0604 10.7258 17.8998 11.0175 17.6082C11.3094 17.3163 11.47 16.9285 11.47 16.5159C11.47 16.1034 11.3094 15.7154 11.0175 15.4237L10.1531 14.5591C12.0083 14.7499 13.4603 16.3218 13.4603 18.2267C13.4603 20.2597 11.8063 21.9137 9.77331 21.9137C9.04253 21.9137 8.33687 21.7007 7.73261 21.2977C7.69368 21.2718 7.65002 21.2537 7.60412 21.2446C7.55821 21.2355 7.51096 21.2355 7.46506 21.2447C7.41917 21.2539 7.37553 21.272 7.33664 21.298C7.29775 21.324 7.26437 21.3575 7.23841 21.3964C7.18593 21.4751 7.16685 21.5713 7.18535 21.6641C7.20386 21.7568 7.25843 21.8383 7.33708 21.8908C8.05872 22.372 8.9012 22.6265 9.77331 22.6265C12.1995 22.6265 14.1731 20.6526 14.1731 18.2267C14.1731 15.8368 12.2579 13.8858 9.88173 13.8281V13.1675C12.622 13.2254 14.8338 15.4724 14.8338 18.2267C14.8338 21.0168 12.5636 23.287 9.77331 23.287ZM15.4963 18.9878L15.9733 20.1923C16.0099 20.2841 16.0552 20.3722 16.1086 20.4555H15.0987C15.2959 19.9861 15.4297 19.4926 15.4963 18.9878ZM16.3558 23.2872C15.7717 23.2872 15.2963 22.8119 15.2963 22.2277C15.2963 21.6436 15.7716 21.1685 16.3558 21.1685C16.9398 21.1685 17.4152 21.6436 17.4152 22.2277C17.4152 22.8118 16.9399 23.2872 16.3558 23.2872Z" fill="#373737"/>
<path d="M16.3556 21.8713C16.0288 21.8713 15.8746 22.2981 16.1313 22.5047C16.3859 22.7094 16.7727 22.4778 16.7044 22.1546C16.6698 21.9916 16.5226 21.8713 16.3556 21.8713Z" fill="#373737"/>
</g>
<defs>
<clipPath id="clip0_535_11008">
<rect width="24" height="24" fill="white"/>
</clipPath>
</defs>
</svg>
