<svg width="24" height="24" viewBox="0 0 24 24" fill="none" xmlns="http://www.w3.org/2000/svg">
<path d="M21.7301 16.5704H2.26978V3.45568C2.26978 3.36843 2.30443 3.28476 2.36613 3.22306C2.42782 3.16137 2.5115 3.12671 2.59874 3.12671H21.4011C21.4884 3.12671 21.5721 3.16137 21.6338 3.22306C21.6955 3.28476 21.7301 3.36843 21.7301 3.45568V16.5704Z" fill="#D5D5D5"/>
<path d="M21.4011 3.12671H18.9544C19.0416 3.12671 19.1253 3.16137 19.187 3.22306C19.2487 3.28476 19.2833 3.36843 19.2833 3.45568V14.6369C19.2833 14.7394 19.2426 14.8378 19.1701 14.9103C19.0976 14.9828 18.9992 15.0235 18.8967 15.0235H2.26978V16.5704H21.7302V3.45572C21.7302 3.36847 21.6955 3.28479 21.6338 3.22309C21.5721 3.16139 21.4884 3.12672 21.4011 3.12671Z" fill="#E3E3E3"/>
<path d="M3.7229 14.0884V4.77957C3.7229 4.7266 3.74394 4.67579 3.7814 4.63834C3.81886 4.60088 3.86966 4.57983 3.92263 4.57983H20.0773C20.1303 4.57983 20.1811 4.60088 20.2185 4.63834C20.256 4.67579 20.277 4.7266 20.277 4.77957V14.0884C20.277 14.1414 20.256 14.1922 20.2185 14.2296C20.1811 14.2671 20.1303 14.2881 20.0773 14.2881H3.92263C3.8964 14.2881 3.87043 14.283 3.84619 14.2729C3.82196 14.2629 3.79994 14.2482 3.78139 14.2296C3.76284 14.2111 3.74813 14.1891 3.73809 14.1648C3.72806 14.1406 3.72289 14.1146 3.7229 14.0884Z" fill="#D981E4"/>
<path d="M20.0773 4.57983H19.2833V13.1521C19.2833 13.1783 19.2782 13.2043 19.2681 13.2285C19.2581 13.2527 19.2434 13.2747 19.2248 13.2933C19.2063 13.3118 19.1843 13.3265 19.16 13.3366C19.1358 13.3466 19.1098 13.3518 19.0836 13.3518H3.7229V14.0884C3.7229 14.1146 3.72807 14.1406 3.7381 14.1648C3.74814 14.189 3.76285 14.2111 3.7814 14.2296C3.79995 14.2482 3.82197 14.2629 3.8462 14.2729C3.87043 14.2829 3.89641 14.2881 3.92263 14.2881H20.0773C20.1035 14.2881 20.1295 14.2829 20.1537 14.2729C20.178 14.2629 20.2 14.2482 20.2185 14.2296C20.2371 14.2111 20.2518 14.189 20.2618 14.1648C20.2719 14.1406 20.277 14.1146 20.277 14.0884V4.77952C20.277 4.75329 20.2719 4.72732 20.2618 4.70309C20.2518 4.67886 20.2371 4.65684 20.2185 4.6383C20.2 4.61976 20.1779 4.60505 20.1537 4.59502C20.1295 4.58499 20.1035 4.57983 20.0773 4.57983Z" fill="#E5B0EC"/>
<path d="M23.1917 20.8735H0.808312C0.556031 20.8735 0.351562 20.669 0.351562 20.4167V19.5249H23.6484V20.4167C23.6484 20.669 23.4439 20.8735 23.1917 20.8735Z" fill="#373737"/>
<path d="M23.6484 19.5249H0.351562L2.26983 15.7412H21.7302L23.6484 19.5249Z" fill="#C7C7C7"/>
<path d="M21.7302 15.7412H18.9802L20.2408 18.2276C20.3817 18.5056 20.1797 18.8344 19.8681 18.8344H0.701578L0.351562 19.5249H23.6484L21.7302 15.7412Z" fill="#E3E3E3"/>
<path d="M15.0842 19.5248L14.6253 17.861C14.6073 17.7955 14.5682 17.7377 14.5142 17.6965C14.4601 17.6554 14.394 17.6331 14.3261 17.6331H9.67388C9.60593 17.6331 9.53987 17.6554 9.48581 17.6965C9.43175 17.7377 9.3927 17.7955 9.37463 17.861L8.91577 19.5248H15.0842Z" fill="#D5D5D5"/>
<path d="M9.10618 18.8345L8.91577 19.5249H15.0842L14.8938 18.8345H9.10618Z" fill="#E3E3E3"/>
<path d="M23.9989 19.5031C23.9986 19.4995 23.9987 19.4961 23.9984 19.4926C23.9971 19.4788 23.9951 19.4651 23.9922 19.4516C23.9919 19.4503 23.9915 19.449 23.9912 19.4477C23.9884 19.4355 23.985 19.4235 23.981 19.4117C23.9799 19.4086 23.9787 19.4055 23.9775 19.4024C23.9736 19.3918 23.9692 19.3815 23.9642 19.3713C23.9634 19.3696 23.9628 19.3677 23.9619 19.3659L22.0817 15.6573V3.45572C22.0817 3.08044 21.7764 2.77515 21.4011 2.77515H2.5988C2.22352 2.77515 1.91822 3.08044 1.91822 3.45572V15.6572L0.0380156 19.3658C0.037125 19.3676 0.0365625 19.3695 0.0357188 19.3712C0.0307944 19.3814 0.0263519 19.3917 0.0224063 19.4023C0.0212344 19.4054 0.0200625 19.4085 0.0189844 19.4116C0.0149488 19.4234 0.0115378 19.4355 0.00876562 19.4477L0.00778125 19.4515C0.00491902 19.465 0.00286848 19.4787 0.00164063 19.4925C0.0013125 19.4959 0.0013125 19.4994 0.001125 19.5029C0.00065625 19.5103 0 19.5174 0 19.5249V20.4167C0 20.8625 0.362578 21.2251 0.808312 21.2251H23.1917C23.6374 21.2251 24 20.8625 24 20.4167V19.5249C24 19.5174 23.9993 19.5103 23.9989 19.5031ZM2.62139 3.47832H21.3786V15.3897H2.62139V3.47832ZM2.48573 16.0928H21.5142L23.076 19.1733H15.3519L14.9642 17.7676C14.8853 17.4814 14.6229 17.2815 14.326 17.2815H9.67388C9.37702 17.2815 9.11456 17.4814 9.03567 17.7675L8.64797 19.1733H0.923953L2.48573 16.0928ZM14.6226 19.1733H9.37744L9.70523 17.9847H14.2948L14.6226 19.1733ZM23.2969 20.4167C23.2968 20.4446 23.2857 20.4713 23.266 20.491C23.2463 20.5107 23.2196 20.5218 23.1917 20.5219H0.808312C0.780426 20.5218 0.753693 20.5107 0.733975 20.491C0.714256 20.4713 0.703162 20.4446 0.703125 20.4167V19.8764H23.2969V20.4167Z" fill="#1E1E1E"/>
<path d="M20.277 10.0199C20.2308 10.0199 20.1851 10.0289 20.1425 10.0466C20.0998 10.0643 20.061 10.0902 20.0284 10.1228C19.9957 10.1555 19.9698 10.1942 19.9522 10.2369C19.9345 10.2795 19.9254 10.3253 19.9254 10.3714V13.9365H4.07446V10.3714C4.07446 10.1772 3.9171 10.0199 3.7229 10.0199C3.5287 10.0199 3.37134 10.1772 3.37134 10.3714V14.0883C3.37134 14.3923 3.6186 14.6396 3.92263 14.6396H20.0773C20.3813 14.6396 20.6286 14.3924 20.6286 14.0883V10.3714C20.6286 10.2782 20.5915 10.1888 20.5256 10.1228C20.4597 10.0569 20.3702 10.0199 20.277 10.0199ZM20.0773 4.22827H3.92263C3.61865 4.22827 3.37134 4.47554 3.37134 4.77957V8.49647C3.37134 8.69068 3.5287 8.84804 3.7229 8.84804C3.9171 8.84804 4.07446 8.69068 4.07446 8.49647V4.9314H19.9254V8.49647C19.9254 8.69068 20.0828 8.84804 20.277 8.84804C20.4712 8.84804 20.6286 8.69068 20.6286 8.49647V4.77957C20.6286 4.47554 20.3813 4.22827 20.0773 4.22827Z" fill="#1E1E1E"/>
</svg>
