<svg width="24" height="24" viewBox="0 0 24 24" fill="none" xmlns="http://www.w3.org/2000/svg">
<path d="M23.9989 19.5031C23.9986 19.4995 23.9987 19.4961 23.9984 19.4926C23.9971 19.4788 23.9951 19.4651 23.9922 19.4516C23.9919 19.4503 23.9915 19.449 23.9912 19.4477C23.9884 19.4355 23.985 19.4235 23.981 19.4117C23.9799 19.4086 23.9787 19.4055 23.9775 19.4024C23.9736 19.3918 23.9692 19.3815 23.9642 19.3713C23.9634 19.3696 23.9628 19.3677 23.9619 19.3659L22.0817 15.6573V3.45572C22.0817 3.08044 21.7764 2.77515 21.4011 2.77515H2.5988C2.22352 2.77515 1.91822 3.08044 1.91822 3.45572V15.6572L0.0380156 19.3659C0.037125 19.3677 0.0365625 19.3695 0.0357188 19.3713C0.0307944 19.3814 0.0263519 19.3918 0.0224063 19.4023C0.0212344 19.4054 0.0200625 19.4085 0.0189844 19.4116C0.0149488 19.4235 0.0115378 19.4355 0.00876562 19.4477L0.00778125 19.4515C0.00491902 19.4651 0.00286848 19.4787 0.00164063 19.4925C0.0013125 19.496 0.0013125 19.4995 0.001125 19.503C0.00065625 19.5103 0 19.5175 0 19.5249V20.4167C0 20.8625 0.362578 21.2251 0.808312 21.2251H23.1917C23.6374 21.2251 24 20.8625 24 20.4167V19.5249C24 19.5175 23.9993 19.5103 23.9989 19.5031ZM2.62139 3.47837H21.3786V15.3897H2.62139V3.47837ZM2.48573 16.0928H21.5142L23.076 19.1733H15.3519L14.9642 17.7676C14.8853 17.4814 14.6229 17.2815 14.326 17.2815H9.67388C9.37702 17.2815 9.11456 17.4814 9.03567 17.7675L8.64797 19.1733H0.923953L2.48573 16.0928ZM14.6226 19.1733H9.37744L9.70523 17.9847H14.2948L14.6226 19.1733ZM23.2969 20.4167C23.2968 20.4446 23.2857 20.4713 23.266 20.491C23.2463 20.5107 23.2196 20.5218 23.1917 20.5219H0.808312C0.780426 20.5218 0.753693 20.5107 0.733975 20.491C0.714256 20.4713 0.703162 20.4446 0.703125 20.4167V19.8764H23.2969V20.4167Z" fill="#373737"/>
<path d="M20.277 10.0198C20.2308 10.0198 20.1851 10.0289 20.1425 10.0466C20.0998 10.0642 20.061 10.0901 20.0284 10.1228C19.9957 10.1554 19.9698 10.1942 19.9522 10.2368C19.9345 10.2795 19.9254 10.3252 19.9254 10.3714V13.9365H4.07446V10.3714C4.07446 10.1772 3.9171 10.0198 3.7229 10.0198C3.67673 10.0198 3.63101 10.0289 3.58836 10.0466C3.5457 10.0642 3.50694 10.0901 3.47429 10.1228C3.44165 10.1554 3.41575 10.1942 3.39809 10.2368C3.38042 10.2795 3.37133 10.3252 3.37134 10.3714V14.0883C3.37134 14.3923 3.6186 14.6396 3.92263 14.6396H20.0773C20.3813 14.6396 20.6286 14.3923 20.6286 14.0883V10.3714C20.6286 10.2781 20.5915 10.1887 20.5256 10.1228C20.4597 10.0569 20.3702 10.0198 20.277 10.0198ZM20.0773 4.22827H3.92263C3.61865 4.22827 3.37134 4.47554 3.37134 4.77957V8.49647C3.37134 8.69068 3.5287 8.84804 3.7229 8.84804C3.9171 8.84804 4.07446 8.69068 4.07446 8.49647V4.9314H19.9254V8.49647C19.9254 8.69068 20.0828 8.84804 20.277 8.84804C20.4712 8.84804 20.6286 8.69068 20.6286 8.49647V4.77957C20.6286 4.47549 20.3813 4.22827 20.0773 4.22827Z" fill="#373737"/>
</svg>
