<svg width="24" height="24" viewBox="0 0 24 24" fill="none" xmlns="http://www.w3.org/2000/svg">
<g clip-path="url(#clip0_680_2079)">
<mask id="mask0_680_2079" style="mask-type:luminance" maskUnits="userSpaceOnUse" x="0" y="0" width="24" height="24">
<path d="M0 7.05719e-05H23.9999V24H0V7.05719e-05Z" fill="white"/>
</mask>
<g mask="url(#mask0_680_2079)">
<path d="M6.5477 2.88489C5.86783 2.88485 6.15686 2.87219 5.20019 2.94686C4.20008 3.02493 3.26914 3.4875 2.60286 4.23742C2.24501 4.64012 1.68908 4.80306 1.17589 4.63904L0.70316 4.48792C0.70316 4.48792 0.461707 9.54511 1.92097 10.1812H11.2516V7.58761C11.2516 4.99004 9.14528 2.88494 6.5477 2.88489Z" fill="#D77F4A"/>
<path d="M4.14499 15.8297V15.8283H2.71732C1.63123 15.8283 0.750732 16.7087 0.750732 17.7948V21.0647H11.2516V17.7948C11.2516 16.7087 10.3711 15.8283 9.285 15.8283H7.85738V15.8297H4.14499Z" fill="#6D6D6D"/>
<path d="M4.13806 14.3465V15.8296C4.13806 16.8547 4.96911 17.6858 5.99426 17.6858C7.01941 17.6858 7.85046 16.8547 7.85046 15.8296V14.3465H4.13806Z" fill="#E59A5C"/>
<path d="M4.13806 15.8297C4.13806 15.9155 4.14439 15.9999 4.15564 16.0826C4.71879 16.3357 5.34429 16.4768 6.00326 16.4768C6.65473 16.4768 7.27361 16.3389 7.83175 16.0911C7.8438 16.0057 7.85046 15.9185 7.85046 15.8297V14.3466H4.13806V15.8297Z" fill="#FFC48F"/>
<path d="M3.81444 12.0359H1.51964C0.680389 12.0359 0 11.3555 0 10.5163C0 9.67701 0.680389 8.99662 1.51964 8.99662H3.81444V12.0359Z" fill="#FFC48F"/>
<path d="M8.18787 8.99662H10.4826C11.3219 8.99662 12.0023 9.67701 12.0023 10.5163C12.0023 11.3555 11.3219 12.0359 10.4826 12.0359H8.18787V8.99662Z" fill="#FFC48F"/>
<path d="M1.53467 9.67897V11.3535C1.53467 13.7935 3.53533 15.7715 6.00334 15.7715C8.4713 15.7715 10.472 13.7935 10.472 11.3535V9.67897C10.472 7.23895 8.4713 5.26097 6.00334 5.26097C3.53533 5.26097 1.53467 7.23895 1.53467 9.67897Z" fill="#FFC48F"/>
<path d="M6.15416 5.26403C5.98568 5.2685 5.81758 5.28235 5.65063 5.30551C7.81789 5.61029 9.48448 7.45205 9.48448 9.67894V11.3534C9.48448 13.5803 7.81789 15.422 5.65063 15.7269C5.81758 15.75 5.98568 15.7639 6.15416 15.7683C8.55219 15.6896 10.472 13.7435 10.472 11.3534V9.67894C10.472 7.28884 8.55224 5.34273 6.15416 5.26403Z" fill="#E59A5C"/>
<path d="M6.73439 2.88968H5.94483C5.8164 2.8968 5.64001 2.91265 5.20023 2.94701C4.23406 3.02242 3.33115 3.45686 2.66931 4.16477V6.12789C2.66931 7.71226 3.95368 8.99658 5.53805 8.99658H11.2516V7.58776C11.2516 5.05272 9.24553 2.98722 6.73439 2.88968Z" fill="#D77F4A"/>
<path d="M6.73434 2.88968H5.94478C5.83659 2.89568 5.69371 2.90791 5.38879 2.9321C7.67357 3.25291 9.43175 5.21453 9.43175 7.58776V8.99658H11.2516V7.58776C11.2516 5.05272 9.24547 2.98722 6.73434 2.88968Z" fill="#C86D36"/>
<path d="M9.28499 15.8283H7.85737V15.8297H7.78992C8.84976 15.8598 9.69983 16.7277 9.69983 17.7948V21.0647H11.2516V17.7948C11.2516 16.7087 10.3711 15.8283 9.28499 15.8283Z" fill="#D5D5D5"/>
<path d="M8.18096 11.6335C8.13194 11.6336 8.0834 11.6239 8.03811 11.6051C7.99283 11.5864 7.95168 11.5589 7.91702 11.5242C7.88236 11.4896 7.85487 11.4484 7.83612 11.4031C7.81737 11.3578 7.80773 11.3093 7.80774 11.2603V10.4353C7.80773 10.3863 7.81738 10.3378 7.83614 10.2925C7.85489 10.2472 7.88238 10.2061 7.91704 10.1714C7.9517 10.1368 7.99284 10.1093 8.03813 10.0905C8.08341 10.0718 8.13194 10.0621 8.18096 10.0621C8.22997 10.0621 8.27851 10.0718 8.3238 10.0905C8.36908 10.1093 8.41023 10.1368 8.44489 10.1714C8.47955 10.2061 8.50705 10.2472 8.52581 10.2925C8.54457 10.3378 8.55422 10.3863 8.55422 10.4353V11.2603C8.55423 11.3093 8.54458 11.3578 8.52582 11.4031C8.50706 11.4484 8.47957 11.4896 8.44491 11.5242C8.41025 11.5589 8.3691 11.5864 8.32381 11.6051C8.27852 11.6239 8.22998 11.6336 8.18096 11.6335Z" fill="#5A5A5A"/>
<path d="M3.80759 11.6335C3.75857 11.6336 3.71003 11.6239 3.66474 11.6051C3.61945 11.5864 3.5783 11.5589 3.54364 11.5242C3.50898 11.4896 3.48148 11.4484 3.46273 11.4031C3.44397 11.3578 3.43432 11.3093 3.43433 11.2603V10.4353C3.43433 10.3863 3.44398 10.3378 3.46274 10.2925C3.4815 10.2472 3.50899 10.2061 3.54366 10.1714C3.57832 10.1368 3.61947 10.1093 3.66475 10.0905C3.71004 10.0718 3.75858 10.0621 3.80759 10.0621C3.85661 10.0621 3.90514 10.0718 3.95043 10.0905C3.99572 10.1093 4.03686 10.1368 4.07153 10.1714C4.10619 10.2061 4.13368 10.2472 4.15244 10.2925C4.1712 10.3378 4.18086 10.3863 4.18086 10.4353V11.2603C4.18086 11.3093 4.17121 11.3578 4.15245 11.4031C4.1337 11.4484 4.1062 11.4896 4.07154 11.5242C4.03688 11.5589 3.99573 11.5864 3.95044 11.6051C3.90515 11.6239 3.85661 11.6336 3.80759 11.6335Z" fill="#5A5A5A"/>
<path d="M14.5462 16.1081H14.3531C13.305 16.1081 12.4553 16.9578 12.4553 18.006V21.116H22.1344V18.006C22.1344 16.9578 21.2847 16.1081 20.2365 16.1081H14.5462Z" fill="#C426D9"/>
<path d="M20.2365 16.1081H18.6821C19.7303 16.1081 20.58 16.9578 20.58 18.006V21.116H22.1344V18.006C22.1344 16.9578 21.2847 16.1081 20.2365 16.1081Z" fill="#D46AE2"/>
<path d="M17.2885 18.1069C16.3756 18.1069 15.6355 17.3669 15.6355 16.4539V12.4758H18.9416V16.4539C18.9416 17.3669 18.2015 18.1069 17.2885 18.1069Z" fill="#E59A5C"/>
<path d="M15.6355 16.2186C16.1547 16.4527 16.7177 16.5735 17.2872 16.573C17.8577 16.5735 18.4217 16.4523 18.9416 16.2175V12.4759H15.6355V16.2186Z" fill="#FFC48F"/>
<path d="M23.1739 16.6152H24V14.3406C24 13.0121 22.923 11.9351 21.5946 11.9351H20.7684V14.2099C20.7684 15.5383 21.8454 16.6152 23.1739 16.6152Z" fill="#5A5A5A"/>
<path d="M21.5946 11.9351H20.7684V12.0043C21.8203 12.2613 22.601 13.2095 22.601 14.3405V16.546C22.7885 16.5919 22.9808 16.6152 23.1739 16.6152H24V14.3405C24 13.0121 22.923 11.9351 21.5946 11.9351Z" fill="#444444"/>
<path d="M11.3911 16.6152H10.5649V14.3406C10.5649 13.0121 11.6419 11.9351 12.9704 11.9351H13.7965V14.2099C13.7965 15.5383 12.7195 16.6152 11.3911 16.6152Z" fill="#5A5A5A"/>
<path d="M15.3414 12.4758H13.2925C12.5445 12.4758 11.9381 11.8694 11.9381 11.1214C11.9381 10.3734 12.5445 9.76698 13.2925 9.76698H15.3414V12.4758Z" fill="#FFC48F"/>
<path d="M19.2235 9.76698H21.2723C22.0204 9.76698 22.6268 10.3734 22.6268 11.1214C22.6268 11.8695 22.0204 12.4758 21.2723 12.4758H19.2235V9.76698Z" fill="#FFC48F"/>
<path d="M17.2872 6.44338C15.0871 6.44338 13.3036 8.20489 13.3036 10.3779V11.8673C13.3036 14.0402 15.0871 15.8018 17.2872 15.8018C19.4874 15.8018 21.2709 14.0402 21.2709 11.8673V10.3779C21.2709 8.20489 19.4874 6.44338 17.2872 6.44338Z" fill="#FFC48F"/>
<path d="M17.2872 6.44338C17.0807 6.44339 16.8745 6.45914 16.6704 6.49049C18.5776 6.78332 20.0372 8.41212 20.0372 10.3779V11.8673C20.0372 13.833 18.5776 15.4619 16.6704 15.7547C16.8745 15.786 17.0807 15.8018 17.2872 15.8018C19.4874 15.8018 21.2709 14.0402 21.2709 11.8673V10.3779C21.2709 8.20489 19.4874 6.44338 17.2872 6.44338Z" fill="#E59A5C"/>
<path d="M17.7048 4.14603C17.5928 4.14603 17.4854 4.19052 17.4062 4.26972C17.327 4.34891 17.2825 4.45633 17.2825 4.56833C17.2824 4.45633 17.2379 4.34891 17.1587 4.26972C17.0795 4.19052 16.9721 4.14603 16.8601 4.14603C14.3431 4.14603 12.3026 6.1865 12.3026 8.70354V9.76685H14.9621C16.2436 9.76685 17.2824 8.72801 17.2825 7.44654C17.2825 8.72801 18.3213 9.76685 19.6029 9.76685H22.2623V8.70354C22.2623 6.1865 20.2218 4.14603 17.7048 4.14603Z" fill="#5A5A5A"/>
<path d="M17.7047 4.14603C17.6473 4.14601 17.5904 4.15778 17.5376 4.1806C17.4848 4.20343 17.4373 4.23683 17.3979 4.27874C19.3874 4.76816 20.8633 6.56304 20.8633 8.70354V9.76685H22.2622V8.70354C22.2622 6.1865 20.2218 4.14603 17.7047 4.14603Z" fill="#444444"/>
<path d="M19.1613 12.344C19.1077 12.344 19.0547 12.3335 19.0052 12.3129C18.9556 12.2924 18.9107 12.2624 18.8728 12.2245C18.8349 12.1866 18.8048 12.1416 18.7843 12.0921C18.7638 12.0426 18.7533 11.9896 18.7533 11.936V11.2107C18.7533 11.1025 18.7963 10.9987 18.8728 10.9222C18.9493 10.8457 19.0531 10.8027 19.1613 10.8027H19.4731C19.573 10.8026 19.6694 10.8392 19.7441 10.9055C19.8188 10.9717 19.8666 11.0631 19.8785 11.1623C19.8903 11.2614 19.8654 11.3615 19.8084 11.4435C19.7514 11.5255 19.6664 11.5838 19.5693 11.6073V11.936C19.5693 11.9896 19.5588 12.0426 19.5382 12.0921C19.5177 12.1416 19.4877 12.1866 19.4498 12.2245C19.4119 12.2624 19.3669 12.2924 19.3174 12.3129C19.2679 12.3335 19.2149 12.344 19.1613 12.344Z" fill="#5A5A5A"/>
<path d="M15.4284 12.344C15.3749 12.344 15.3218 12.3335 15.2723 12.3129C15.2228 12.2924 15.1778 12.2624 15.1399 12.2245C15.102 12.1866 15.072 12.1416 15.0515 12.0921C15.031 12.0426 15.0204 11.9896 15.0204 11.936V11.6073C14.9234 11.5838 14.8383 11.5255 14.7813 11.4435C14.7243 11.3615 14.6994 11.2614 14.7113 11.1623C14.7231 11.0631 14.7709 10.9717 14.8456 10.9055C14.9203 10.8392 15.0168 10.8026 15.1166 10.8027H15.4284C15.5367 10.8027 15.6404 10.8457 15.7169 10.9222C15.7935 10.9987 15.8364 11.1025 15.8364 11.2107V11.936C15.8365 11.9896 15.8259 12.0426 15.8054 12.0921C15.7849 12.1416 15.7548 12.1866 15.717 12.2245C15.6791 12.2624 15.6341 12.2924 15.5846 12.3129C15.5351 12.3335 15.482 12.344 15.4284 12.344Z" fill="#5A5A5A"/>
</g>
</g>
<defs>
<clipPath id="clip0_680_2079">
<rect width="24" height="24" fill="white"/>
</clipPath>
</defs>
</svg>
