<svg width="24" height="24" viewBox="0 0 24 24" fill="none" xmlns="http://www.w3.org/2000/svg">
<path d="M17.2899 14.0604C17.926 14.0604 18.4435 13.5429 18.4435 12.9068C18.4435 12.7126 18.2861 12.5552 18.0919 12.5552C17.8977 12.5552 17.7403 12.7126 17.7403 12.9068C17.7403 13.1552 17.5383 13.3572 17.2899 13.3572C17.0416 13.3572 16.8395 13.1551 16.8395 12.9068C16.8395 12.7126 16.6821 12.5552 16.4879 12.5552C16.2938 12.5552 16.1364 12.7126 16.1364 12.9068C16.1363 13.5429 16.6538 14.0604 17.2899 14.0604ZM19.1332 12.0883C19.2264 12.0883 19.3158 12.0513 19.3818 11.9854C19.4477 11.9194 19.4847 11.83 19.4847 11.7368V11.3694C19.5736 11.3584 19.6549 11.3139 19.712 11.245C19.7692 11.1761 19.7979 11.088 19.7924 10.9987C19.7868 10.9093 19.7474 10.8255 19.6821 10.7642C19.6169 10.7029 19.5307 10.6689 19.4412 10.6689H19.1332C19.0399 10.6689 18.9505 10.706 18.8846 10.7719C18.8187 10.8378 18.7816 10.9273 18.7816 11.0205V11.7368C18.7816 11.83 18.8187 11.9194 18.8846 11.9854C18.9505 12.0513 19.0399 12.0883 19.1332 12.0883ZM15.095 11.3694V11.7368C15.095 11.931 15.2525 12.0884 15.4466 12.0884C15.6408 12.0884 15.7982 11.931 15.7982 11.7368V11.0206C15.7982 10.9273 15.7611 10.8379 15.6952 10.772C15.6293 10.706 15.5398 10.669 15.4466 10.669H15.1386C15.0491 10.6689 14.9629 10.703 14.8977 10.7642C14.8324 10.8255 14.793 10.9094 14.7874 10.9987C14.7819 11.0881 14.8106 11.1762 14.8678 11.2451C14.9249 11.3139 15.0062 11.3584 15.095 11.3694Z" fill="#373737"/>
<path d="M22.5443 11.7999C22.6471 11.5825 22.7004 11.345 22.7002 11.1044C22.7002 10.6907 22.5453 10.3126 22.2908 10.0244C22.3327 9.96526 22.3552 9.89456 22.3551 9.82208C22.3551 8.78371 22.407 8.16791 22.0946 7.27476C22.0305 7.09147 21.8299 6.99468 21.6466 7.05894C21.6031 7.07418 21.5629 7.09786 21.5285 7.12862C21.494 7.15938 21.466 7.19662 21.446 7.23821C21.4259 7.27981 21.4143 7.32494 21.4117 7.37104C21.4091 7.41714 21.4156 7.4633 21.4308 7.50688C21.6862 8.23677 21.6519 8.74307 21.6519 9.47052H19.4862C18.469 9.47052 17.6415 8.64299 17.6414 7.6258C17.6414 7.4316 17.484 7.27424 17.2898 7.27424C17.0957 7.27424 16.9383 7.4316 16.9383 7.6258C16.9383 8.64299 16.1107 9.47052 15.0935 9.47052H12.9277V8.81558C12.9277 6.63074 14.7052 4.85324 16.8901 4.85324C16.9167 4.85324 16.9383 4.87485 16.9383 4.90143C16.9383 5.09558 17.0957 5.25294 17.2898 5.25294C17.484 5.25294 17.6414 5.09558 17.6414 4.90143C17.6414 4.87485 17.663 4.85324 17.6896 4.85324C18.2558 4.85331 18.8154 4.9747 19.3308 5.20922C19.8462 5.44375 20.3053 5.78597 20.6773 6.21285C20.7075 6.24806 20.7444 6.27695 20.7859 6.29783C20.8273 6.31872 20.8724 6.3312 20.9187 6.33455C20.965 6.33791 21.0115 6.33206 21.0555 6.31736C21.0995 6.30266 21.1402 6.27939 21.1751 6.2489C21.2101 6.21841 21.2387 6.1813 21.2593 6.1397C21.2798 6.0981 21.292 6.05285 21.2949 6.00654C21.2979 5.96024 21.2917 5.9138 21.2767 5.86991C21.2616 5.82602 21.238 5.78554 21.2073 5.7508C20.7693 5.24823 20.2287 4.84532 19.6219 4.56922C19.0152 4.29312 18.3563 4.15022 17.6896 4.15016C17.5428 4.15016 17.4057 4.19249 17.2899 4.26557C17.1703 4.19001 17.0316 4.14999 16.8901 4.15016C14.3176 4.15016 12.2247 6.24308 12.2247 8.81563V9.82213C12.2247 9.8975 12.2486 9.96721 12.289 10.0244C12.17 10.159 12.0739 10.3122 12.0047 10.4779C11.9848 10.2291 11.9126 9.98726 11.793 9.76817C11.6734 9.54908 11.509 9.35765 11.3104 9.20633V7.86697C11.3104 5.22997 9.16509 3.08465 6.52809 3.08465C5.87334 3.08465 6.1357 3.07335 5.23008 3.14413C3.98086 3.24163 2.86294 3.91011 2.1862 4.95008L1.12748 4.61169C0.908109 4.54138 0.680344 4.6986 0.669281 4.92979C0.664266 5.03572 0.558187 7.39007 0.987469 9.0299C0.402609 9.32324 0 9.92835 0 10.6261C0 11.5314 0.677625 12.2815 1.55236 12.3958C1.77253 13.3404 2.29266 14.1979 3.0367 14.8339C3.23093 14.9995 3.43874 15.1486 3.65794 15.2794H2.91816C1.70264 15.2794 0.713766 16.2683 0.713766 17.4838V20.5646C0.713766 20.6578 0.750805 20.7472 0.816736 20.8132C0.882667 20.8791 0.972088 20.9161 1.06533 20.9161H1.64934C1.8435 20.9161 2.00091 20.7588 2.00091 20.5646C2.00091 20.3704 1.8435 20.213 1.64934 20.213H1.41689V17.4838C1.41689 16.656 2.09034 15.9825 2.91816 15.9825H3.94088C4.11558 17.0191 5.05308 17.7985 6.14831 17.7278C7.13977 17.6639 7.9253 16.918 8.08313 15.9825H9.10598C9.9338 15.9825 10.6073 16.656 10.6073 17.4838V20.213H3.29002C3.09586 20.213 2.93845 20.3704 2.93845 20.5646C2.93845 20.7588 3.09586 20.9161 3.29002 20.9161H10.9589C11.0521 20.9161 11.1416 20.8791 11.2075 20.8132C11.2734 20.7472 11.3105 20.6578 11.3105 20.5646V17.4838C11.3106 17.2 11.2556 16.9188 11.1486 16.6559H11.7134C12.0563 16.6561 12.3958 16.5889 12.7127 16.458C12.4882 16.8043 12.369 17.2082 12.3693 17.6208V20.5646C12.3693 20.6578 12.4064 20.7472 12.4723 20.8132C12.5382 20.8791 12.6277 20.9161 12.7209 20.9161H21.8826C21.9758 20.9161 22.0653 20.8791 22.1312 20.8132C22.1971 20.7472 22.2342 20.6578 22.2342 20.5646V17.6208C22.2345 17.2132 22.1181 16.814 21.8988 16.4705C22.2067 16.5931 22.5351 16.656 22.8666 16.6559H23.6484C23.7417 16.6559 23.8311 16.6189 23.897 16.5529C23.963 16.487 24 16.3976 24 16.3043V14.1512C24 13.1496 23.4195 12.2391 22.5443 11.7999ZM15.0936 10.1737C16.028 10.1737 16.8465 9.66819 17.2899 8.91618C17.7334 9.66819 18.5519 10.1737 19.4863 10.1737H21.0663C21.5796 10.1737 21.9971 10.5912 21.9971 11.1044C21.9971 11.3554 21.8968 11.583 21.7348 11.7506C21.5497 11.9418 21.293 12.0449 21.029 12.0342C20.8512 12.026 20.6967 12.1524 20.6674 12.3274C20.4 13.9265 19.0167 15.1828 17.2899 15.1828C16.07 15.1828 14.9304 14.5379 14.3172 13.4653C14.3115 13.4508 14.3049 13.4366 14.2973 13.4229C14.155 13.1681 14.046 12.8961 13.9731 12.6134C13.9717 12.6078 13.9705 12.6021 13.9691 12.5965C13.9464 12.5076 13.9275 12.4178 13.9125 12.3274C13.8833 12.1528 13.728 12.0261 13.5509 12.0341C13.0247 12.0555 12.5828 11.631 12.5828 11.1043C12.5828 10.5911 13.0004 10.1736 13.5135 10.1736C13.5263 10.1736 13.5391 10.1742 13.5518 10.1746C13.5668 10.1752 13.5816 10.1749 13.5962 10.1736H15.0936V10.1737ZM17.2957 17.3648C16.6268 17.3648 16.0826 16.8206 16.0826 16.1517V15.7062C16.4816 15.8286 16.8983 15.8861 17.2899 15.8861C17.6944 15.8861 18.1156 15.8247 18.5088 15.7027V16.1517C18.5088 16.7998 17.998 17.3308 17.358 17.3633C17.3374 17.3643 17.3166 17.3648 17.2957 17.3648ZM14.5168 15.4728H14.5164C14.282 15.4729 14.0493 15.5115 13.8274 15.5871C14.0484 15.2887 14.2033 14.9468 14.2819 14.5839C14.3853 14.6943 14.4946 14.7989 14.6095 14.8973C14.8457 15.0991 15.104 15.2734 15.3795 15.417V15.4728H14.5168ZM19.212 15.4112C19.6099 15.2019 19.974 14.9289 20.2979 14.584C20.3757 14.9425 20.528 15.2807 20.7449 15.5766C20.3435 15.4469 20.1341 15.4728 19.212 15.4728L19.212 15.4112ZM1.36013 5.42418L2.23711 5.70444C2.31463 5.72919 2.39833 5.72628 2.47395 5.69623C2.54957 5.66618 2.61243 5.61083 2.65181 5.53963C3.19045 4.56519 4.17478 3.93168 5.28483 3.8451C6.16866 3.7761 5.90067 3.78772 6.52809 3.78772C8.77734 3.78772 10.6073 5.61763 10.6073 7.86693V8.88247C10.3001 8.81633 10.3973 8.84268 5.57569 8.84268C5.23408 8.84282 4.89658 8.76821 4.58686 8.6241C3.92128 8.31463 3.41653 7.70136 3.26869 6.94565C3.2122 6.6569 2.8568 6.57004 2.66695 6.77296C2.15981 7.31511 1.80525 7.95735 1.61273 8.62387C1.371 7.53036 1.35145 6.13494 1.36013 5.42418ZM2.18986 11.9998C2.17574 11.9154 2.13128 11.839 2.06484 11.785C1.99839 11.731 1.91452 11.7031 1.82897 11.7066C1.81426 11.7072 1.79954 11.7076 1.78481 11.7077C1.18837 11.7077 0.703125 11.2225 0.703125 10.6261C0.703125 10.0397 1.17056 9.56568 1.74553 9.54538L1.7498 9.54529C1.77646 9.54442 1.80315 9.54453 1.82981 9.54561C1.83089 9.54566 1.83197 9.54552 1.83305 9.54557C1.91793 9.54811 2.00086 9.5198 2.06647 9.46588C2.13208 9.41196 2.17592 9.33609 2.18986 9.25232C2.27994 8.71264 2.48449 8.1985 2.78977 7.74444C3.2737 8.81924 4.35572 9.54585 5.57569 9.54585H10.2773C10.4542 9.55467 10.6264 9.60638 10.7789 9.69651C10.7816 9.69815 10.7845 9.69922 10.7873 9.70077C10.9466 9.79694 11.0782 9.9327 11.1695 10.0948C11.2608 10.257 11.3085 10.44 11.3081 10.626C11.3081 11.2225 10.8228 11.7077 10.2264 11.7077C10.2116 11.7077 10.1969 11.7071 10.1822 11.7065C10.0053 11.7002 9.85055 11.8251 9.8213 11.9998C9.50269 13.905 7.86328 15.2258 6.00558 15.2258C4.13358 15.2258 2.50622 13.8914 2.18986 11.9998ZM5.94155 17.0278C5.25361 16.9934 4.6927 16.4583 4.6223 15.7759C4.62178 15.7708 4.6215 15.7656 4.62103 15.7604C4.61963 15.7452 4.61845 15.7299 4.61756 15.7146C5.08055 15.8623 5.56331 15.9289 6.00567 15.9289C6.45638 15.9289 6.94303 15.86 7.40714 15.7102C7.36462 16.4759 6.70823 17.0661 5.94155 17.0278ZM9.10603 15.2794H8.35336C8.57256 15.1486 8.78037 14.9995 8.97459 14.8339C9.71859 14.198 10.2388 13.3405 10.4589 12.3958C11.1124 12.3104 11.6558 11.8701 11.8888 11.2754C11.9078 11.4573 11.9573 11.6346 12.0355 11.7999C11.1602 12.2391 10.5798 13.1496 10.5798 14.1512V15.8461C10.189 15.4941 9.67219 15.2794 9.10603 15.2794ZM11.283 15.9528V14.1512C11.283 13.3689 11.7662 12.662 12.4793 12.3692C12.7129 12.5599 12.9941 12.6797 13.2752 12.721C13.3564 13.0602 13.4843 13.3914 13.6386 13.6834V14.0274C13.6386 15.089 12.7749 15.9527 11.7133 15.9527H11.283V15.9528ZM21.531 20.213H13.0724V17.6208C13.0724 16.8241 13.7206 16.1759 14.5173 16.1759H15.3796C15.3926 17.2141 16.2413 18.068 17.2957 18.068C18.3381 18.068 19.1986 17.2272 19.2118 16.1759H20.0861C20.8828 16.1759 21.531 16.8241 21.531 17.6208V20.213H21.531ZM23.2969 15.9528H22.8665C21.8048 15.9528 20.9412 15.0891 20.9412 14.0274V13.6835C21.0978 13.3871 21.2244 13.0559 21.3045 12.7211C21.5824 12.6798 21.8449 12.5675 22.0667 12.395C22.0779 12.3863 22.0895 12.3783 22.1004 12.3693C22.8136 12.662 23.2969 13.3689 23.2969 14.1512V15.9528Z" fill="#373737"/>
<path d="M6.00568 13.8944C6.69381 13.8944 7.25364 13.3346 7.25364 12.6465C7.25364 12.4523 7.09623 12.2949 6.90208 12.2949C6.70792 12.2949 6.55051 12.4523 6.55051 12.6465C6.55051 12.9469 6.30611 13.1913 6.00568 13.1913C5.70526 13.1913 5.46081 12.9469 5.46081 12.6465C5.46081 12.4523 5.3034 12.2949 5.10925 12.2949C4.91509 12.2949 4.75768 12.4523 4.75768 12.6465C4.75773 13.3346 5.31756 13.8944 6.00568 13.8944ZM3.94543 10.1982C3.85219 10.1982 3.76277 10.2353 3.69684 10.3012C3.63091 10.3671 3.59387 10.4566 3.59387 10.5498V11.3271C3.59387 11.5213 3.75128 11.6786 3.94543 11.6786C4.13959 11.6786 4.297 11.5213 4.297 11.3271V10.5498C4.297 10.4566 4.25996 10.3671 4.19403 10.3012C4.1281 10.2353 4.03867 10.1982 3.94543 10.1982ZM8.06594 11.6786C8.15918 11.6786 8.2486 11.6416 8.31453 11.5757C8.38046 11.5097 8.4175 11.4203 8.4175 11.3271V10.5498C8.4175 10.3556 8.26009 10.1982 8.06594 10.1982C7.87178 10.1982 7.71437 10.3556 7.71437 10.5498V11.3271C7.71437 11.4203 7.75141 11.5097 7.81734 11.5757C7.88327 11.6416 7.97269 11.6786 8.06594 11.6786Z" fill="#373737"/>
</svg>
