<svg width="24" height="24" viewBox="0 0 24 24" fill="none" xmlns="http://www.w3.org/2000/svg">
<path d="M12.25 1C10.025 1 7.84989 1.6598 5.99984 2.89597C4.14979 4.13213 2.70785 5.88914 1.85636 7.94481C1.00487 10.0005 0.782087 12.2625 1.21617 14.4448C1.65025 16.6271 2.72171 18.6316 4.29505 20.205C5.86839 21.7783 7.87295 22.8498 10.0552 23.2838C12.2375 23.7179 14.4995 23.4951 16.5552 22.6436C18.6109 21.7922 20.3679 20.3502 21.604 18.5002C22.8402 16.6501 23.5 14.475 23.5 12.25C23.4966 9.26735 22.3103 6.40783 20.2012 4.29878C18.0922 2.18972 15.2327 1.00337 12.25 1ZM12.25 22C10.3216 22 8.43657 21.4282 6.8332 20.3568C5.22982 19.2855 3.98013 17.7627 3.24218 15.9812C2.50423 14.1996 2.31114 12.2392 2.68735 10.3479C3.06355 8.45656 3.99215 6.71927 5.35571 5.35571C6.71928 3.99215 8.45656 3.06355 10.3479 2.68734C12.2392 2.31114 14.1996 2.50422 15.9812 3.24217C17.7627 3.98013 19.2855 5.22981 20.3568 6.83319C21.4282 8.43657 22 10.3216 22 12.25C21.997 14.8349 20.9688 17.3132 19.141 19.141C17.3132 20.9688 14.835 21.997 12.25 22Z" fill="#EF0F30"/>
<path d="M16.468 6.98318C16.3125 6.85905 16.114 6.80181 15.9162 6.82403C15.7185 6.84625 15.5376 6.94613 15.4135 7.10168C15.2894 7.25723 15.2321 7.45571 15.2544 7.65347C15.2766 7.85123 15.3765 8.03205 15.532 8.15618C16.3809 8.8361 16.9977 9.76288 17.2971 10.8085C17.5966 11.8541 17.5639 12.9669 17.2036 13.9931C16.8432 15.0193 16.1731 15.9082 15.2858 16.5372C14.3984 17.1661 13.3376 17.5039 12.25 17.5039C11.1624 17.5039 10.1016 17.1661 9.21424 16.5372C8.32689 15.9082 7.65676 15.0193 7.29645 13.9931C6.93614 12.9669 6.90345 11.8541 7.20288 10.8085C7.50232 9.76288 8.1191 8.8361 8.968 8.15618C9.04502 8.09472 9.10918 8.01869 9.15682 7.93244C9.20446 7.84618 9.23464 7.75139 9.24564 7.65347C9.25665 7.55555 9.24826 7.45642 9.22095 7.36174C9.19365 7.26707 9.14796 7.1787 9.0865 7.10168C9.02504 7.02466 8.94901 6.96049 8.86276 6.91286C8.77651 6.86522 8.68171 6.83504 8.58379 6.82403C8.48587 6.81303 8.38674 6.82142 8.29207 6.84872C8.19739 6.87603 8.10902 6.92172 8.032 6.98318C6.94012 7.85712 6.14667 9.04865 5.7613 10.3931C5.37594 11.7375 5.41769 13.1684 5.88079 14.4881C6.34388 15.8077 7.20546 16.951 8.34643 17.7598C9.48741 18.5686 10.8514 19.003 12.25 19.003C13.6486 19.003 15.0126 18.5686 16.1536 17.7598C17.2945 16.951 18.1561 15.8077 18.6192 14.4881C19.0823 13.1684 19.1241 11.7375 18.7387 10.3931C18.3533 9.04865 17.5599 7.85712 16.468 6.98318Z" fill="#EF0F30"/>
<path d="M12.25 12.25C12.4489 12.25 12.6397 12.171 12.7803 12.0303C12.921 11.8897 13 11.6989 13 11.5V6.25C13 6.05109 12.921 5.86032 12.7803 5.71967C12.6397 5.57902 12.4489 5.5 12.25 5.5C12.0511 5.5 11.8603 5.57902 11.7197 5.71967C11.579 5.86032 11.5 6.05109 11.5 6.25V11.5C11.5 11.6989 11.579 11.8897 11.7197 12.0303C11.8603 12.171 12.0511 12.25 12.25 12.25Z" fill="#EF0F30"/>
</svg>
