<svg width="24" height="24" viewBox="0 0 24 24" fill="none" xmlns="http://www.w3.org/2000/svg">
<g clip-path="url(#clip0_535_11007)">
<path d="M22.7156 11.4505L23.5515 11.6177C23.5998 11.6274 23.6495 11.6274 23.6978 11.6179C23.7461 11.6083 23.7921 11.5893 23.8331 11.562C23.874 11.5347 23.9092 11.4996 23.9366 11.4587C23.964 11.4178 23.9831 11.3718 23.9928 11.3235C24.0024 11.2753 24.0025 11.2255 23.9929 11.1772C23.9834 11.1289 23.9644 11.083 23.9371 11.042C23.9098 11.001 23.8746 10.9658 23.8337 10.9384C23.7928 10.911 23.7469 10.8919 23.6986 10.8823L22.8511 10.7128C22.8666 10.5474 22.875 10.3747 22.875 10.1932C22.875 10.1766 22.8742 10.1604 22.8741 10.1437C22.8743 10.1375 22.875 10.1313 22.875 10.125V9.53245L23.6985 9.36773C23.7468 9.35808 23.7928 9.339 23.8337 9.3116C23.8746 9.28419 23.9097 9.249 23.937 9.20802C23.9644 9.16704 23.9833 9.12109 23.9929 9.07278C24.0024 9.02446 24.0024 8.97474 23.9927 8.92645C23.9831 8.87816 23.964 8.83224 23.9366 8.79132C23.9092 8.75041 23.874 8.71528 23.833 8.68797C23.792 8.66065 23.7461 8.64167 23.6978 8.63211C23.6495 8.62255 23.5997 8.62261 23.5515 8.63227L22.875 8.76755V5.33873C22.875 5.18913 22.8349 5.04226 22.7589 4.91337C22.683 4.78448 22.5739 4.67827 22.443 4.60575C22.3122 4.53324 22.1643 4.49707 22.0148 4.50099C21.8652 4.50491 21.7194 4.54879 21.5925 4.62806C21.5838 4.6335 21.5753 4.63932 21.567 4.6455L20.2515 5.62645C19.6571 5.37796 19.0193 5.25 18.375 5.25C17.7307 5.25 17.0929 5.37796 16.4985 5.62645L15.1828 4.64531C15.1746 4.63913 15.1661 4.63331 15.1573 4.62787C15.0304 4.54866 14.8845 4.50483 14.735 4.50093C14.5854 4.49703 14.4375 4.5332 14.3066 4.6057C14.2861 4.61705 14.2665 4.62942 14.2473 4.64227L12.3007 2.03044C12.2947 2.02249 12.2885 2.01479 12.2819 2.00737C11.9927 1.67742 11.529 1.22737 10.8435 1.12884C10.8259 1.12628 10.8081 1.125 10.7902 1.125H10.0432C9.47667 0.614953 8.77969 0.375 7.875 0.375C6.97031 0.375 6.27333 0.614953 5.7068 1.125H4.95975C4.94188 1.12499 4.92404 1.12628 4.90636 1.12884C4.22091 1.22728 3.75713 1.67728 3.46795 2.00737C3.46148 2.01483 3.45525 2.02252 3.4492 2.03044L1.48125 4.67137C1.47076 4.68543 1.46127 4.7002 1.45284 4.71558C1.26206 5.06366 1.1521 5.45023 1.13113 5.84661C1.11016 6.24298 1.17872 6.639 1.33171 7.00526C1.4847 7.37153 1.7182 7.69864 2.01489 7.96234C2.31157 8.22603 2.66383 8.41953 3.04552 8.52848C3.19814 9.62273 3.7252 10.4936 4.39945 10.7769C3.73557 11.5282 3.37097 12.4974 3.375 13.5V14.4854C2.44852 16.2031 1.875 18.2593 1.875 19.875C1.87417 20.1257 1.88961 20.3763 1.92122 20.625H0.375C0.275544 20.625 0.180161 20.6645 0.109835 20.7348C0.0395088 20.8052 0 20.9005 0 21C0.000781629 21.696 0.277594 22.3632 0.769708 22.8553C1.26182 23.3474 1.92905 23.6242 2.625 23.625H12.375C12.6689 23.6246 12.951 23.5093 13.1611 23.3038C13.3712 23.0982 13.4926 22.8187 13.4994 22.5248C13.4994 22.5334 13.4994 22.5419 13.4999 22.5505C13.5154 22.8431 13.6435 23.1183 13.8574 23.3186C14.0713 23.5189 14.3543 23.6287 14.6473 23.625H22.5524C22.9362 23.6246 23.3041 23.4719 23.5755 23.2005C23.8469 22.9291 23.9996 22.5612 24 22.1774V22.0726C24.0001 21.8818 23.9624 21.6928 23.8889 21.5167C23.8155 21.3405 23.7079 21.1807 23.5723 21.0464C23.6085 20.7982 23.6261 20.5477 23.625 20.2969C23.625 18.759 23.038 16.7749 22.125 15.2117V15C22.1272 14.2803 21.8972 13.579 21.4691 13.0005C21.5235 12.9723 21.5766 12.9432 21.6281 12.912C22.1662 12.587 22.526 12.1036 22.7156 11.4505ZM21.9984 5.25937C22.0119 5.25292 22.0268 5.24998 22.0417 5.25083C22.0566 5.25169 22.0711 5.25632 22.0837 5.26428C22.0964 5.27224 22.1068 5.28327 22.114 5.29635C22.1212 5.30943 22.125 5.32412 22.125 5.33906V7.30477C22.0056 7.10484 21.8706 6.9147 21.7212 6.73612C21.4989 6.47047 21.244 6.23388 20.9625 6.03192L21.9984 5.25937ZM14.6703 5.26191C14.6825 5.25466 14.6963 5.25062 14.7105 5.25018C14.7247 5.24974 14.7387 5.2529 14.7514 5.25937L15.7875 6.03192C15.506 6.23381 15.2511 6.47034 15.0288 6.73594C14.8794 6.91447 14.7444 7.10456 14.625 7.30444V6.03628C14.626 5.99482 14.626 5.95334 14.625 5.91187V5.33873C14.6245 5.32294 14.6286 5.30734 14.6366 5.29373C14.6446 5.28012 14.6563 5.26905 14.6704 5.26181L14.6703 5.26191ZM12.7573 11.3235C12.7669 11.3718 12.786 11.4178 12.8134 11.4587C12.8408 11.4996 12.876 11.5347 12.917 11.562C12.958 11.5894 13.0039 11.6083 13.0522 11.6179C13.1005 11.6274 13.1503 11.6274 13.1985 11.6177L14.0344 11.4505C14.224 12.1036 14.5838 12.587 15.1219 12.912C15.1734 12.9432 15.2258 12.9727 15.279 13.0008C14.8515 13.5795 14.6218 14.2805 14.6238 15V15.2138C14.1855 15.9735 13.8343 16.7802 13.5767 17.6185C13.309 16.5279 12.9053 15.4753 12.375 14.4854V13.5C12.3791 12.4974 12.0146 11.5283 11.3507 10.7769C12.0251 10.4936 12.552 9.62297 12.7046 8.52881C13.1499 8.40344 13.5538 8.16191 13.875 7.82897V8.76755L13.1985 8.63227C13.1503 8.62261 13.1005 8.62255 13.0522 8.63211C13.0039 8.64167 12.958 8.66065 12.917 8.68797C12.876 8.71528 12.8408 8.75041 12.8134 8.79132C12.786 8.83224 12.7669 8.87816 12.7573 8.92645C12.7476 8.97474 12.7476 9.02446 12.7571 9.07278C12.7667 9.12109 12.7856 9.16704 12.813 9.20802C12.8403 9.249 12.8754 9.28419 12.9163 9.3116C12.9572 9.339 13.0032 9.35808 13.0515 9.36773L13.875 9.53245V10.1115C13.875 10.119 13.8757 10.1264 13.8761 10.1339C13.8761 10.1537 13.875 10.1733 13.875 10.1932C13.875 10.3747 13.8834 10.5474 13.8989 10.7128L13.0515 10.8823C13.0032 10.8919 12.9572 10.911 12.9163 10.9384C12.8754 10.9658 12.8403 11.001 12.813 11.042C12.7856 11.083 12.7667 11.1289 12.7571 11.1772C12.7476 11.2255 12.7476 11.2753 12.7573 11.3235ZM12.375 16.2824C12.8497 17.5182 13.125 18.8042 13.125 19.875C13.125 20.5287 13.0228 21.0524 12.8148 21.4646C12.6757 21.4053 12.5261 21.3749 12.375 21.375V16.2824ZM13.425 21.9138C13.4628 21.9971 13.5049 22.0783 13.5513 22.1571C13.5189 22.2596 13.5013 22.3661 13.4992 22.4736C13.4955 22.3067 13.4544 22.1428 13.3791 21.9939C13.3951 21.9677 13.4101 21.9407 13.425 21.9138ZM14.0723 21.52C13.9401 21.1904 13.875 20.7862 13.875 20.2969C13.875 19.2863 14.1543 18.0604 14.6238 16.9117V21.375C14.4306 21.3754 14.2408 21.4253 14.0725 21.52L14.0723 21.52ZM5.625 9.36459C5.625 8.12892 6.73683 6 7.875 6C9.01317 6 10.125 8.12892 10.125 9.36459C10.125 9.94444 9.81469 10.125 7.875 10.125C6.15938 10.125 5.625 10.0201 5.625 9.36459ZM11.7084 2.49084L13.6512 5.09756C13.7924 5.36135 13.8691 5.65483 13.875 5.95397V5.96428C13.8778 6.33445 13.7728 6.69743 13.5727 7.00891C13.3727 7.32039 13.0863 7.5669 12.7485 7.71834C12.7315 6.80677 12.563 6.41442 12.2695 5.73206C12.0944 5.325 11.8764 4.81837 11.6058 4.00641C11.2908 3.0615 10.9952 2.38453 10.6683 1.875H10.7614C11.0875 1.92895 11.3813 2.12006 11.7084 2.49084ZM3.0015 7.71867C2.7641 7.61274 2.55102 7.45914 2.37547 7.26742C2.19991 7.07569 2.06564 6.84992 1.98099 6.60413C1.89634 6.35834 1.86312 6.09778 1.88338 5.83861C1.90364 5.57944 1.97696 5.32721 2.09878 5.09756L4.04161 2.49084C4.36875 2.12006 4.66247 1.92895 4.98844 1.875H5.08158C4.75477 2.38458 4.45922 3.0615 4.14408 4.00641C3.87347 4.81837 3.6555 5.325 3.48038 5.73206C3.18698 6.41447 3.01842 6.80686 3.0015 7.71867ZM3.75 7.875C3.75 7.00355 3.87281 6.71808 4.16948 6.02845C4.34062 5.63058 4.575 5.08561 4.85578 4.24359C5.65242 1.85362 6.35784 1.125 7.875 1.125C9.39216 1.125 10.0976 1.85362 10.8942 4.24359C11.1749 5.08561 11.4093 5.63058 11.5805 6.02845C11.8772 6.71808 12 7.00355 12 7.875C12 9.24844 11.3337 10.125 10.875 10.125H10.677C10.8124 9.89484 10.8809 9.63153 10.875 9.36459C10.875 7.91934 9.63783 5.25 7.875 5.25C6.11217 5.25 4.875 7.91934 4.875 9.36459C4.86908 9.63153 4.93765 9.89484 5.073 10.125H4.875C4.41633 10.125 3.75 9.24844 3.75 7.875ZM3.375 16.2824V21.375C3.22386 21.3749 3.07426 21.4053 2.93522 21.4646C2.72719 21.0524 2.625 20.5287 2.625 19.875C2.625 18.8041 2.90034 17.5182 3.375 16.2824ZM0.7875 21.375H2.08828C2.15896 21.5911 2.25365 21.7987 2.37056 21.9937C2.23666 22.2584 2.21306 22.5653 2.30494 22.8473C1.93355 22.7823 1.59027 22.6072 1.31967 22.3446C1.04908 22.0821 0.863662 21.7443 0.7875 21.375ZM7.875 18.375C6.83761 18.375 6.375 17.9124 6.375 16.875C6.375 15.4731 7.17408 13.875 7.875 13.875C8.57592 13.875 9.375 15.4731 9.375 16.875C9.375 17.9124 8.91239 18.375 7.875 18.375ZM7.875 21.8377C7.98364 21.9369 8.11119 22.0132 8.25 22.0619V22.5C8.24995 22.6278 8.27176 22.7546 8.3145 22.875H7.4355C7.47824 22.7546 7.50005 22.6278 7.5 22.5V22.0619C7.63881 22.0132 7.76636 21.9369 7.875 21.8377ZM12.375 22.875H9.375C9.27558 22.8749 9.18026 22.8353 9.10996 22.765C9.03966 22.6947 9.00011 22.5994 9 22.5V21.75C9 21.6505 8.96049 21.5552 8.89017 21.4848C8.81984 21.4145 8.72446 21.375 8.625 21.375C8.41463 21.375 8.26092 21.2145 8.25131 20.9846C8.25131 20.9794 8.25042 20.9743 8.25 20.9692V19.1055C9.46284 18.9759 10.125 18.1956 10.125 16.875C10.125 16.0927 9.90431 15.1948 9.53461 14.4729C9.08944 13.6037 8.50008 13.125 7.875 13.125C7.24992 13.125 6.66056 13.6037 6.21563 14.4729C5.84569 15.1948 5.625 16.0927 5.625 16.875C5.625 18.1956 6.28716 18.9759 7.5 19.1055V20.9691C7.49958 20.9743 7.49888 20.9794 7.49869 20.9846C7.48908 21.2143 7.33537 21.375 7.125 21.375C7.02554 21.375 6.93016 21.4145 6.85983 21.4848C6.78951 21.5552 6.75 21.6505 6.75 21.75V22.5C6.74989 22.5994 6.71034 22.6947 6.64004 22.765C6.56974 22.8353 6.47442 22.8749 6.375 22.875H3.375C3.27554 22.875 3.18016 22.8355 3.10984 22.7652C3.03951 22.6948 3 22.5995 3 22.5C3 22.4005 3.03951 22.3052 3.10984 22.2348C3.18016 22.1645 3.27554 22.125 3.375 22.125H4.875C4.97446 22.125 5.06984 22.0855 5.14016 22.0152C5.21049 21.9448 5.25 21.8495 5.25 21.75C5.25 21.6505 5.21049 21.5552 5.14016 21.4848C5.06984 21.4145 4.97446 21.375 4.875 21.375H4.125V13.5C4.12301 12.9963 4.23473 12.4987 4.45181 12.0442C4.66889 11.5897 4.98575 11.19 5.37877 10.875H10.3712C10.7642 11.19 11.0811 11.5897 11.2982 12.0442C11.5153 12.4987 11.627 12.9963 11.625 13.5V21.375H10.875C10.7755 21.375 10.6802 21.4145 10.6098 21.4848C10.5395 21.5552 10.5 21.6505 10.5 21.75C10.5 21.8495 10.5395 21.9448 10.6098 22.0152C10.6802 22.0855 10.7755 22.125 10.875 22.125H12.375C12.4745 22.125 12.5698 22.1645 12.6402 22.2348C12.7105 22.3052 12.75 22.4005 12.75 22.5C12.75 22.5995 12.7105 22.6948 12.6402 22.7652C12.5698 22.8355 12.4745 22.875 12.375 22.875ZM16.5 22.1774V22.0726C16.5002 21.8877 16.5738 21.7104 16.7046 21.5796C16.8354 21.4488 17.0127 21.3752 17.1976 21.375H18V22.875H17.1976C17.0127 22.8748 16.8354 22.8012 16.7046 22.6704C16.5738 22.5396 16.5002 22.3623 16.5 22.1774ZM18.375 19.125C17.9854 19.125 17.625 19.0082 17.625 18.1607C17.625 17.1094 18.1406 16.125 18.375 16.125C18.6094 16.125 19.125 17.1094 19.125 18.1607C19.125 19.0082 18.7646 19.125 18.375 19.125ZM23.25 22.1774C23.2498 22.3623 23.1762 22.5396 23.0454 22.6704C22.9146 22.8012 22.7373 22.8748 22.5524 22.875H18.75V21.375H19.875V21.75C19.875 21.8495 19.9145 21.9448 19.9848 22.0152C20.0552 22.0855 20.1505 22.125 20.25 22.125C20.3495 22.125 20.4448 22.0855 20.5152 22.0152C20.5855 21.9448 20.625 21.8495 20.625 21.75V21.375H21.375V21.75C21.375 21.8495 21.4145 21.9448 21.4848 22.0152C21.5552 22.0855 21.6505 22.125 21.75 22.125H21.7525C21.852 22.125 21.9474 22.0855 22.0177 22.0152C22.088 21.9448 22.1275 21.8495 22.1275 21.75C22.1275 21.6528 22.1265 21.375 22.1265 21.375H22.5524C22.7373 21.3752 22.9146 21.4488 23.0454 21.5796C23.1762 21.7104 23.2498 21.8877 23.25 22.0726V22.1774ZM22.8614 20.6586C22.7599 20.6363 22.6563 20.6251 22.5524 20.625H22.125V16.9087C22.5952 18.0582 22.875 19.2853 22.875 20.2969C22.875 20.4224 22.8705 20.5429 22.8614 20.6586V20.6586ZM21.375 15V16.125H21C20.9005 16.125 20.8052 16.1645 20.7348 16.2348C20.6645 16.3052 20.625 16.4005 20.625 16.5C20.625 16.5995 20.6645 16.6948 20.7348 16.7652C20.8052 16.8355 20.9005 16.875 21 16.875H21.375V17.625H21C20.9005 17.625 20.8052 17.6645 20.7348 17.7348C20.6645 17.8052 20.625 17.9005 20.625 18C20.625 18.0995 20.6645 18.1948 20.7348 18.2652C20.8052 18.3355 20.9005 18.375 21 18.375H21.375V20.625H18.75V19.8388C19.2765 19.733 19.875 19.3513 19.875 18.1607C19.8685 17.5623 19.7462 16.9708 19.515 16.4188C19.1437 15.5561 18.6902 15.375 18.375 15.375C18.0598 15.375 17.6063 15.5561 17.235 16.4189C17.0038 16.9708 16.8815 17.5623 16.875 18.1607C16.875 19.3514 17.4735 19.733 18 19.8389V20.625H17.1976C16.8138 20.6254 16.4459 20.7781 16.1745 21.0495C15.9031 21.3209 15.7504 21.6888 15.75 22.0726V22.1774C15.7498 22.4214 15.8116 22.6615 15.9297 22.875H14.6473C14.4364 22.875 14.2578 22.7146 14.2489 22.5174C14.2465 22.4668 14.2545 22.4161 14.2722 22.3686C14.29 22.3211 14.3173 22.2776 14.3523 22.241C14.3874 22.2043 14.4295 22.1751 14.4762 22.1551C14.5228 22.1352 14.573 22.125 14.6238 22.125H15.375C15.4745 22.1253 15.57 22.0861 15.6405 22.016C15.7111 21.9459 15.7509 21.8507 15.7512 21.7512C15.7516 21.6518 15.7124 21.5563 15.6423 21.4857C15.5722 21.4152 15.4769 21.3753 15.3775 21.375H15.3737V18.375H15.75C15.8495 18.375 15.9448 18.3355 16.0152 18.2652C16.0855 18.1948 16.125 18.0995 16.125 18C16.125 17.9005 16.0855 17.8052 16.0152 17.7348C15.9448 17.6645 15.8495 17.625 15.75 17.625H15.3738V16.875H15.75C15.8495 16.875 15.9448 16.8355 16.0152 16.7652C16.0855 16.6948 16.125 16.5995 16.125 16.5C16.125 16.4005 16.0855 16.3052 16.0152 16.2348C15.9448 16.1645 15.8495 16.125 15.75 16.125H15.3738V15C15.3722 14.3666 15.6014 13.7543 16.0186 13.2776C16.5308 13.4085 17.2612 13.5 18.375 13.5C19.1531 13.5 19.9977 13.4666 20.7285 13.2757C21.147 13.7525 21.3769 14.3657 21.375 15ZM21.2403 12.2701C21.0838 12.3629 20.9172 12.4376 20.7439 12.4928C20.7359 12.495 20.728 12.4975 20.7202 12.5004C20.1797 12.6731 19.4363 12.75 18.375 12.75C16.9234 12.75 16.0665 12.6065 15.5097 12.2701C15.1497 12.0526 14.9079 11.7404 14.7691 11.3036L15.0735 11.2427C15.171 11.2232 15.2568 11.1657 15.312 11.083C15.3672 11.0002 15.3872 10.8989 15.3677 10.8014C15.3482 10.7039 15.2907 10.6181 15.208 10.5629C15.1252 10.5077 15.0239 10.4877 14.9264 10.5072L14.6374 10.565C14.6292 10.4472 14.625 10.3232 14.625 10.1932C14.625 10.0242 14.6327 9.85509 14.648 9.68691L14.9264 9.74259C15.0239 9.7621 15.1252 9.74206 15.208 9.68689C15.2907 9.63172 15.3482 9.54593 15.3677 9.44841C15.3872 9.35088 15.3672 9.24959 15.312 9.16684C15.2568 9.08408 15.171 9.02663 15.0735 9.00712L14.7688 8.94619C15.0141 7.91606 15.579 6.99375 16.5 6.4658V7.125C16.5 7.22446 16.5395 7.31984 16.6098 7.39016C16.6802 7.46049 16.7755 7.5 16.875 7.5C16.9745 7.5 17.0698 7.46049 17.1402 7.39016C17.2105 7.31984 17.25 7.22446 17.25 7.125V6.15047C17.495 6.08102 17.7462 6.03582 18 6.01551V7.875C18 7.97446 18.0395 8.06984 18.1098 8.14016C18.1802 8.21049 18.2755 8.25 18.375 8.25C18.4745 8.25 18.5698 8.21049 18.6402 8.14016C18.7105 8.06984 18.75 7.97446 18.75 7.875V6.01551C19.0038 6.03582 19.255 6.08102 19.5 6.15047V7.125C19.5 7.22446 19.5395 7.31984 19.6098 7.39016C19.6802 7.46049 19.7755 7.5 19.875 7.5C19.9745 7.5 20.0698 7.46049 20.1402 7.39016C20.2105 7.31984 20.25 7.22446 20.25 7.125V6.4658C21.171 6.9938 21.7359 7.91606 21.9814 8.94628L21.6767 9.00722C21.6284 9.01688 21.5825 9.03595 21.5416 9.06336C21.5006 9.09076 21.4655 9.12595 21.4382 9.16693C21.4109 9.20791 21.3919 9.25386 21.3823 9.30217C21.3728 9.35049 21.3728 9.40021 21.3825 9.4485C21.3922 9.49679 21.4112 9.54271 21.4386 9.58363C21.466 9.62455 21.5012 9.65967 21.5422 9.68699C21.5832 9.7143 21.6291 9.73328 21.6775 9.74284C21.7258 9.7524 21.7755 9.75235 21.8238 9.74269L22.1022 9.687C22.1175 9.85509 22.1252 10.0242 22.1252 10.1932C22.1252 10.3235 22.1211 10.4475 22.1128 10.5651L21.8238 10.5073C21.7263 10.4878 21.625 10.5078 21.5422 10.563C21.4595 10.6182 21.402 10.704 21.3825 10.8015C21.363 10.899 21.383 11.0003 21.4382 11.0831C21.4934 11.1658 21.5792 11.2233 21.6767 11.2428L21.9811 11.3037C21.8421 11.7403 21.6003 12.0526 21.2403 12.2701Z" fill="#373737"/>
<path d="M20.25 9.375C20.4571 9.375 20.625 9.20711 20.625 9C20.625 8.79289 20.4571 8.625 20.25 8.625C20.0429 8.625 19.875 8.79289 19.875 9C19.875 9.20711 20.0429 9.375 20.25 9.375Z" fill="#373737"/>
<path d="M16.5 9.375C16.7071 9.375 16.875 9.20711 16.875 9C16.875 8.79289 16.7071 8.625 16.5 8.625C16.2929 8.625 16.125 8.79289 16.125 9C16.125 9.20711 16.2929 9.375 16.5 9.375Z" fill="#373737"/>
<path d="M9.375 4.86157C9.58211 4.86157 9.75 4.69368 9.75 4.48657C9.75 4.27947 9.58211 4.11157 9.375 4.11157C9.16789 4.11157 9 4.27947 9 4.48657C9 4.69368 9.16789 4.86157 9.375 4.86157Z" fill="#373737"/>
<path d="M6.375 4.86157C6.58211 4.86157 6.75 4.69368 6.75 4.48657C6.75 4.27947 6.58211 4.11157 6.375 4.11157C6.16789 4.11157 6 4.27947 6 4.48657C6 4.69368 6.16789 4.86157 6.375 4.86157Z" fill="#373737"/>
<path d="M9 8.625C8.31989 8.625 8.25572 8.313 8.25 8.24222V7.875C8.34946 7.875 8.44484 7.83549 8.51517 7.76517C8.58549 7.69484 8.625 7.59946 8.625 7.5C8.625 7.13644 8.36217 6.75 7.875 6.75C7.38783 6.75 7.125 7.13644 7.125 7.5C7.125 7.59946 7.16451 7.69484 7.23483 7.76517C7.30516 7.83549 7.40054 7.875 7.5 7.875V8.25C7.48992 8.30437 7.46747 8.3557 7.43438 8.4C7.32398 8.54719 7.0875 8.625 6.75 8.625C6.65054 8.625 6.55516 8.66451 6.48483 8.73483C6.41451 8.80516 6.375 8.90054 6.375 9C6.375 9.09946 6.41451 9.19484 6.48483 9.26517C6.55516 9.33549 6.65054 9.375 6.75 9.375C7.30505 9.375 7.65469 9.21891 7.875 9.02306C8.09531 9.21891 8.44495 9.375 9 9.375C9.09946 9.375 9.19484 9.33549 9.26517 9.26517C9.33549 9.19484 9.375 9.09946 9.375 9C9.375 8.90054 9.33549 8.80516 9.26517 8.73483C9.19484 8.66451 9.09946 8.625 9 8.625ZM19.2922 11.2894C19.052 11.1692 18.7882 10.9635 18.75 10.8679V10.5C18.8495 10.5 18.9448 10.4605 19.0152 10.3902C19.0855 10.3198 19.125 10.2245 19.125 10.125C19.125 9.76144 18.8622 9.375 18.375 9.375C17.8878 9.375 17.625 9.76144 17.625 10.125C17.625 10.2245 17.6645 10.3198 17.7348 10.3902C17.8052 10.4605 17.9005 10.5 18 10.5V10.8678C17.9619 10.9634 17.6981 11.1691 17.4582 11.2891C17.4141 11.311 17.3747 11.3414 17.3424 11.3785C17.31 11.4156 17.2853 11.4587 17.2695 11.5054C17.2538 11.5521 17.2475 11.6014 17.2508 11.6505C17.2542 11.6997 17.2672 11.7477 17.2891 11.7918C17.311 11.8359 17.3414 11.8753 17.3785 11.9076C17.4156 11.94 17.4587 11.9647 17.5054 11.9805C17.5521 11.9962 17.6014 12.0025 17.6505 11.9992C17.6997 11.9958 17.7477 11.9828 17.7918 11.9609C18.0023 11.8569 18.1983 11.7259 18.375 11.5713C18.5517 11.7259 18.7477 11.8569 18.9582 11.9609C19.0473 12.0052 19.1503 12.0123 19.2446 11.9807C19.2912 11.965 19.3344 11.9403 19.3715 11.9079C19.4087 11.8756 19.4391 11.8362 19.461 11.7922C19.4829 11.7481 19.496 11.7001 19.4994 11.651C19.5027 11.6018 19.4964 11.5525 19.4808 11.5058C19.4651 11.4591 19.4404 11.416 19.408 11.3788C19.3757 11.3417 19.3363 11.3113 19.2922 11.2894Z" fill="#373737"/>
</g>
<defs>
<clipPath id="clip0_535_11007">
<rect width="24" height="24" fill="white"/>
</clipPath>
</defs>
</svg>
