<svg width="24" height="24" viewBox="0 0 24 24" fill="none" xmlns="http://www.w3.org/2000/svg">
<g clip-path="url(#clip0_680_14816)">
<path d="M23.25 20.2969C23.25 23.1964 21.0674 23.25 18.375 23.25C15.6826 23.25 13.5 23.1964 13.5 20.2969C13.5 17.3974 15.6826 12.75 18.375 12.75C21.0674 12.75 23.25 17.3974 23.25 20.2969Z" fill="#7E8589"/>
<path d="M22.125 21.75C22.2263 21.75 22.3266 21.7705 22.4198 21.8104C22.513 21.8502 22.5972 21.9085 22.6672 21.9818C22.7372 22.0551 22.7917 22.1418 22.8273 22.2367C22.8628 22.3316 22.8788 22.4327 22.8742 22.5339C22.8562 22.9387 22.5066 23.25 22.1016 23.25H19.8775C19.6779 23.25 19.4865 23.1707 19.3454 23.0296C19.2043 22.8885 19.125 22.6971 19.125 22.4975V21.7524C19.125 21.7521 19.1249 21.7518 19.1248 21.7515C19.1247 21.7512 19.1245 21.7509 19.1243 21.7507C19.124 21.7505 19.1238 21.7503 19.1235 21.7502C19.1232 21.7501 19.1228 21.75 19.1225 21.75C18.7018 21.7487 18.3941 21.4167 18.3767 21.0003L18.375 21L18.3733 21.0003C18.3559 21.4167 18.0482 21.7487 17.6275 21.75C17.6272 21.75 17.6268 21.7501 17.6265 21.7502C17.6262 21.7503 17.626 21.7505 17.6257 21.7507C17.6255 21.7509 17.6253 21.7512 17.6252 21.7515C17.6251 21.7518 17.625 21.7521 17.625 21.7524V22.4975C17.625 22.6971 17.5457 22.8885 17.4046 23.0296C17.2635 23.1707 17.072 23.25 16.8725 23.25H14.6484C14.2432 23.25 13.8935 22.9387 13.8756 22.5339C13.8711 22.4327 13.887 22.3315 13.9226 22.2366C13.9582 22.1417 14.0127 22.055 14.0827 21.9818C14.1528 21.9085 14.2369 21.8502 14.3301 21.8103C14.4233 21.7705 14.5236 21.75 14.625 21.75H14.9975C14.9981 21.75 14.9988 21.7497 14.9992 21.7493C14.9997 21.7488 15 21.7481 15 21.7475V15C15 14.2044 15.3161 13.4413 15.8787 12.8787C16.4413 12.3161 17.2043 12 18 12H18.75C19.5456 12 20.3087 12.3161 20.8713 12.8787C21.4339 13.4413 21.75 14.2044 21.75 15V21.7475C21.75 21.7481 21.7503 21.7488 21.7507 21.7493C21.7512 21.7497 21.7518 21.75 21.7525 21.75H22.125Z" fill="#9AA3A8"/>
<path d="M18.375 21.375C18.2755 21.375 18.1802 21.3355 18.1098 21.2652C18.0395 21.1948 18 21.0995 18 21V19.5C18 19.4005 18.0395 19.3052 18.1098 19.2348C18.1802 19.1645 18.2755 19.125 18.375 19.125C18.4745 19.125 18.5698 19.1645 18.6402 19.2348C18.7105 19.3052 18.75 19.4005 18.75 19.5V21C18.75 21.0995 18.7105 21.1948 18.6402 21.2652C18.5698 21.3355 18.4745 21.375 18.375 21.375ZM15.75 22.125H14.625C14.5255 22.125 14.4302 22.0855 14.3598 22.0152C14.2895 21.9448 14.25 21.8495 14.25 21.75C14.25 21.6505 14.2895 21.5552 14.3598 21.4848C14.4302 21.4145 14.5255 21.375 14.625 21.375H15.75C15.8495 21.375 15.9448 21.4145 16.0152 21.4848C16.0855 21.5552 16.125 21.6505 16.125 21.75C16.125 21.8495 16.0855 21.9448 16.0152 22.0152C15.9448 22.0855 15.8495 22.125 15.75 22.125Z" fill="#B6B9BA"/>
<path d="M19.5 18.1607C19.5 19.1962 18.9963 19.5 18.375 19.5C17.7537 19.5 17.25 19.1962 17.25 18.1607C17.25 17.1252 17.7537 15.75 18.375 15.75C18.9963 15.75 19.5 17.1252 19.5 18.1607Z" fill="#7E8589"/>
<path d="M22.5524 21H17.1976C16.6052 21 16.125 21.4802 16.125 22.0726V22.1774C16.125 22.7698 16.6052 23.25 17.1976 23.25H22.5524C23.1448 23.25 23.625 22.7698 23.625 22.1774V22.0726C23.625 21.4802 23.1448 21 22.5524 21Z" fill="#B6B9BA"/>
<path d="M18.375 21V23.25H17.1975C16.9131 23.2499 16.6403 23.1369 16.4392 22.9358C16.2381 22.7347 16.1251 22.4619 16.125 22.1775V22.0725C16.1251 21.7881 16.2381 21.5153 16.4392 21.3142C16.6403 21.1131 16.9131 21.0001 17.1975 21H18.375Z" fill="#7E8589"/>
<path d="M22.5 10.125V5.33878C22.5 5.2561 22.4778 5.17494 22.4358 5.10372C22.3938 5.0325 22.3335 4.97381 22.2612 4.93375C22.1889 4.89369 22.1072 4.87371 22.0245 4.87589C21.9419 4.87807 21.8613 4.90233 21.7912 4.94615L19.875 6.37504H16.875L14.9588 4.94615C14.8887 4.90233 14.8081 4.87807 14.7255 4.87589C14.6428 4.87371 14.5611 4.89369 14.4888 4.93375C14.4165 4.97381 14.3562 5.0325 14.3142 5.10372C14.2722 5.17494 14.25 5.2561 14.25 5.33878V10.125H22.5Z" fill="#9AA3A8"/>
<path d="M22.5 10.1932C22.5 12.6785 21.0328 13.125 18.375 13.125C15.7172 13.125 14.25 12.6785 14.25 10.1932C14.25 7.70794 15.7172 5.625 18.375 5.625C21.0328 5.625 22.5 7.70789 22.5 10.1932Z" fill="#B6B9BA"/>
<path d="M18.75 5.63953V7.875C18.75 7.97446 18.7104 8.06984 18.6401 8.14017C18.5698 8.21049 18.4744 8.25 18.375 8.25C18.2755 8.25 18.1801 8.21049 18.1098 8.14017C18.0395 8.06984 18 7.97446 18 7.875V5.63953C18.1223 5.62969 18.2473 5.62485 18.375 5.625C18.5026 5.62516 18.6276 5.63 18.75 5.63953ZM20.25 6.04125V7.125C20.25 7.22446 20.2104 7.31984 20.1401 7.39017C20.0698 7.46049 19.9744 7.5 19.875 7.5C19.7755 7.5 19.6801 7.46049 19.6098 7.39017C19.5395 7.31984 19.5 7.22446 19.5 7.125V5.76282C19.759 5.82927 20.0103 5.92258 20.25 6.04125ZM17.25 5.76282V7.125C17.25 7.22446 17.2104 7.31984 17.1401 7.39017C17.0698 7.46049 16.9744 7.5 16.875 7.5C16.7755 7.5 16.6801 7.46049 16.6098 7.39017C16.5395 7.31984 16.5 7.22446 16.5 7.125V6.04125C16.7396 5.92258 16.9909 5.82927 17.25 5.76282ZM15.0004 9.75C14.9755 9.75001 14.9508 9.74756 14.9264 9.74269L13.0514 9.36769C13.0031 9.35803 12.9572 9.33896 12.9163 9.31155C12.8754 9.28415 12.8402 9.24896 12.8129 9.20798C12.7856 9.167 12.7666 9.12105 12.7571 9.07273C12.7475 9.02442 12.7476 8.9747 12.7572 8.92641C12.7669 8.87812 12.786 8.8322 12.8134 8.79128C12.8408 8.75036 12.876 8.71524 12.9169 8.68792C12.9579 8.66061 13.0039 8.64163 13.0522 8.63207C13.1005 8.62251 13.1502 8.62256 13.1985 8.63222L15.0735 9.00722C15.1648 9.0254 15.2461 9.07687 15.3015 9.15164C15.3569 9.2264 15.3826 9.31911 15.3735 9.41174C15.3644 9.50437 15.3211 9.5903 15.2522 9.65282C15.1832 9.71534 15.0935 9.74998 15.0004 9.75ZM13.1245 11.625C13.0315 11.625 12.9417 11.5903 12.8728 11.5278C12.8038 11.4653 12.7606 11.3794 12.7514 11.2867C12.7423 11.1941 12.768 11.1014 12.8234 11.0266C12.8789 10.9519 12.9601 10.9004 13.0514 10.8822L14.9264 10.5072C15.0239 10.4877 15.1252 10.5078 15.208 10.5629C15.2907 10.6181 15.3482 10.7039 15.3677 10.8014C15.3872 10.8989 15.3672 11.0002 15.312 11.083C15.2568 11.1657 15.171 11.2232 15.0735 11.2427L13.1985 11.6177C13.1741 11.6226 13.1494 11.625 13.1245 11.625ZM21.7495 9.75C21.6565 9.74998 21.5667 9.71534 21.4978 9.65282C21.4288 9.5903 21.3856 9.50437 21.3764 9.41174C21.3673 9.31911 21.393 9.2264 21.4484 9.15164C21.5039 9.07687 21.5851 9.0254 21.6764 9.00722L23.5514 8.63222C23.5997 8.62256 23.6494 8.62251 23.6977 8.63207C23.746 8.64163 23.792 8.66061 23.833 8.68792C23.874 8.71524 23.9092 8.75036 23.9366 8.79128C23.964 8.8322 23.983 8.87812 23.9927 8.92641C24.0023 8.9747 24.0024 9.02442 23.9928 9.07273C23.9833 9.12105 23.9643 9.167 23.937 9.20798C23.9097 9.24896 23.8746 9.28415 23.8336 9.31155C23.7927 9.33896 23.7468 9.35803 23.6985 9.36769L21.8235 9.74269C21.7991 9.74756 21.7744 9.75001 21.7495 9.75ZM23.6254 11.625C23.6005 11.625 23.5758 11.6226 23.5514 11.6177L21.6764 11.2427C21.5789 11.2232 21.4931 11.1657 21.4379 11.083C21.3828 11.0002 21.3627 10.8989 21.3822 10.8014C21.4017 10.7039 21.4592 10.6181 21.5419 10.5629C21.6247 10.5078 21.726 10.4877 21.8235 10.5072L23.6985 10.8822C23.7898 10.9004 23.8711 10.9519 23.9265 11.0266C23.9819 11.1014 24.0076 11.1941 23.9985 11.2867C23.9894 11.3794 23.9461 11.4653 23.8772 11.5278C23.8082 11.5903 23.7185 11.625 23.6254 11.625Z" fill="#7E8589"/>
<path d="M0.375 21H7.125V23.25H2.625C2.02826 23.25 1.45597 23.0129 1.03401 22.591C0.612053 22.169 0.375 21.5967 0.375 21Z" fill="#8C5237"/>
<path d="M13.5 19.875C13.5 23.1887 10.9816 23.25 7.875 23.25C4.76841 23.25 2.25 23.1887 2.25 19.875C2.25 16.5613 4.76841 11.25 7.875 11.25C10.9816 11.25 13.5 16.5613 13.5 19.875Z" fill="#B37A60"/>
<path d="M12.375 21.75C12.5739 21.75 12.7647 21.829 12.9053 21.9697C13.046 22.1103 13.125 22.3011 13.125 22.5C13.125 22.6989 13.046 22.8897 12.9053 23.0303C12.7647 23.171 12.5739 23.25 12.375 23.25H9.375C9.17609 23.25 8.98532 23.171 8.84467 23.0303C8.70402 22.8897 8.625 22.6989 8.625 22.5V21.75C8.20312 21.75 7.89408 21.4175 7.87669 21.0003L7.875 21L7.87331 21.0003C7.85592 21.4175 7.54688 21.75 7.125 21.75V22.5C7.125 22.6989 7.04598 22.8897 6.90533 23.0303C6.76468 23.171 6.57391 23.25 6.375 23.25H3.375C3.17609 23.25 2.98532 23.171 2.84467 23.0303C2.70402 22.8897 2.625 22.6989 2.625 22.5C2.625 22.3011 2.70402 22.1103 2.84467 21.9697C2.98532 21.829 3.17609 21.75 3.375 21.75H3.75V13.5C3.75 12.5054 4.14509 11.5516 4.84835 10.8483C5.55161 10.1451 6.50544 9.75 7.5 9.75H8.25C9.24456 9.75 10.1984 10.1451 10.9017 10.8483C11.6049 11.5516 12 12.5054 12 13.5V21.75H12.375Z" fill="#D49073"/>
<path d="M7.875 21.375C7.77554 21.375 7.68016 21.3355 7.60983 21.2652C7.53951 21.1948 7.5 21.0995 7.5 21V18.375C7.5 18.2755 7.53951 18.1802 7.60983 18.1098C7.68016 18.0395 7.77554 18 7.875 18C7.97446 18 8.06984 18.0395 8.14017 18.1098C8.21049 18.1802 8.25 18.2755 8.25 18.375V21C8.25 21.0995 8.21049 21.1948 8.14017 21.2652C8.06984 21.3355 7.97446 21.375 7.875 21.375ZM4.875 22.125H3.75C3.65054 22.125 3.55516 22.0855 3.48484 22.0152C3.41451 21.9448 3.375 21.8495 3.375 21.75C3.375 21.6505 3.41451 21.5552 3.48484 21.4848C3.55516 21.4145 3.65054 21.375 3.75 21.375H4.875C4.97446 21.375 5.06984 21.4145 5.14016 21.4848C5.21049 21.5552 5.25 21.6505 5.25 21.75C5.25 21.8495 5.21049 21.9448 5.14016 22.0152C5.06984 22.0855 4.97446 22.125 4.875 22.125ZM12 22.125H10.875C10.7755 22.125 10.6802 22.0855 10.6098 22.0152C10.5395 21.9448 10.5 21.8495 10.5 21.75C10.5 21.6505 10.5395 21.5552 10.6098 21.4848C10.6802 21.4145 10.7755 21.375 10.875 21.375H12C12.0995 21.375 12.1948 21.4145 12.2652 21.4848C12.3355 21.5552 12.375 21.6505 12.375 21.75C12.375 21.8495 12.3355 21.9448 12.2652 22.0152C12.1948 22.0855 12.0995 22.125 12 22.125Z" fill="#C48669"/>
<path d="M9.75 16.875C9.75 18.3247 8.91052 18.75 7.875 18.75C6.83948 18.75 6 18.3247 6 16.875C6 15.4253 6.83948 13.5 7.875 13.5C8.91052 13.5 9.75 15.4253 9.75 16.875Z" fill="#B37A60"/>
<path d="M7.5 1.5H4.95975C4.44004 1.57472 4.06045 1.90031 3.75 2.25469L1.78172 4.89563C0.956996 6.40406 2.04182 8.25 3.75318 8.25H7.5V1.5ZM8.25 1.5H10.7902C11.3099 1.57472 11.6895 1.90031 12 2.25469L13.9683 4.89563C14.793 6.40406 13.7082 8.25 11.9968 8.25H8.25V1.5Z" fill="#8C5237"/>
<path d="M7.875 0.75C6 0.75 5.25 1.875 4.5 4.125C3.75 6.375 3.375 6.375 3.375 7.875C3.375 9.375 4.125 10.4865 4.875 10.4865H10.875C11.625 10.4865 12.375 9.375 12.375 7.875C12.375 6.375 12 6.375 11.25 4.125C10.5 1.875 9.75 0.75 7.875 0.75Z" fill="#C48669"/>
<path d="M10.5 9.36157C10.5 10.7078 9.32475 10.4866 7.875 10.4866C6.42525 10.4866 5.25 10.7078 5.25 9.36157C5.25 8.01537 6.42525 5.61157 7.875 5.61157C9.32475 5.61157 10.5 8.01542 10.5 9.36157Z" fill="#F0C6A4"/>
<path d="M9.375 4.86157C9.58211 4.86157 9.75 4.69368 9.75 4.48657C9.75 4.27947 9.58211 4.11157 9.375 4.11157C9.16789 4.11157 9 4.27947 9 4.48657C9 4.69368 9.16789 4.86157 9.375 4.86157Z" fill="#8C5237"/>
<path d="M6.375 4.86157C6.58211 4.86157 6.75 4.69368 6.75 4.48657C6.75 4.27947 6.58211 4.11157 6.375 4.11157C6.16789 4.11157 6 4.27947 6 4.48657C6 4.69368 6.16789 4.86157 6.375 4.86157Z" fill="#8C5237"/>
<path d="M9 8.625C8.31989 8.625 8.25572 8.313 8.25 8.24222V7.875C8.34946 7.875 8.44484 7.83549 8.51517 7.76517C8.58549 7.69484 8.625 7.59946 8.625 7.5C8.625 7.13644 8.36217 6.75 7.875 6.75C7.38783 6.75 7.125 7.13644 7.125 7.5C7.125 7.59946 7.16451 7.69484 7.23483 7.76517C7.30516 7.83549 7.40054 7.875 7.5 7.875V8.25C7.48992 8.30437 7.46747 8.3557 7.43438 8.4C7.32398 8.54719 7.0875 8.625 6.75 8.625C6.65054 8.625 6.55516 8.66451 6.48483 8.73483C6.41451 8.80516 6.375 8.90054 6.375 9C6.375 9.09946 6.41451 9.19484 6.48483 9.26517C6.55516 9.33549 6.65054 9.375 6.75 9.375C7.30505 9.375 7.65469 9.21891 7.875 9.02306C8.09531 9.21891 8.44495 9.375 9 9.375C9.09946 9.375 9.19484 9.33549 9.26517 9.26517C9.33549 9.19484 9.375 9.09946 9.375 9C9.375 8.90054 9.33549 8.80516 9.26517 8.73483C9.19484 8.66451 9.09946 8.625 9 8.625Z" fill="#8C5237"/>
<path d="M19.875 21.75C19.875 21.8495 19.9145 21.9448 19.9848 22.0152C20.0552 22.0855 20.1505 22.125 20.25 22.125C20.3495 22.125 20.4448 22.0855 20.5152 22.0152C20.5855 21.9448 20.625 21.8495 20.625 21.75V21H19.875V21.75ZM21.375 21V21.75C21.375 21.8495 21.4145 21.9448 21.4848 22.0152C21.5552 22.0855 21.6505 22.125 21.75 22.125C21.8495 22.125 21.9448 22.0855 22.0152 22.0152C22.0855 21.9448 22.125 21.8495 22.125 21.75V21H21.375ZM15.75 16.125H15V16.875H15.75C15.8495 16.875 15.9448 16.8355 16.0152 16.7652C16.0855 16.6948 16.125 16.5995 16.125 16.5C16.125 16.4005 16.0855 16.3052 16.0152 16.2348C15.9448 16.1645 15.8495 16.125 15.75 16.125ZM15.75 17.625H15V18.375H15.75C15.8495 18.375 15.9448 18.3355 16.0152 18.2652C16.0855 18.1948 16.125 18.0995 16.125 18C16.125 17.9005 16.0855 17.8052 16.0152 17.7348C15.9448 17.6645 15.8495 17.625 15.75 17.625ZM20.625 18C20.625 18.0995 20.6645 18.1948 20.7348 18.2652C20.8052 18.3355 20.9005 18.375 21 18.375H21.75V17.625H21C20.9005 17.625 20.8052 17.6645 20.7348 17.7348C20.6645 17.8052 20.625 17.9005 20.625 18ZM20.625 16.5C20.625 16.5995 20.6645 16.6948 20.7348 16.7652C20.8052 16.8355 20.9005 16.875 21 16.875H21.75V16.125H21C20.9005 16.125 20.8052 16.1645 20.7348 16.2348C20.6645 16.3052 20.625 16.4005 20.625 16.5Z" fill="#7E8589"/>
<path d="M20.25 9.375C20.4571 9.375 20.625 9.20711 20.625 9C20.625 8.79289 20.4571 8.625 20.25 8.625C20.0429 8.625 19.875 8.79289 19.875 9C19.875 9.20711 20.0429 9.375 20.25 9.375Z" fill="#7E8589"/>
<path d="M16.5 9.375C16.7071 9.375 16.875 9.20711 16.875 9C16.875 8.79289 16.7071 8.625 16.5 8.625C16.2929 8.625 16.125 8.79289 16.125 9C16.125 9.20711 16.2929 9.375 16.5 9.375Z" fill="#7E8589"/>
<path d="M19.2923 11.2894C19.0521 11.1692 18.7883 10.9635 18.7501 10.8679V9.75C18.7501 9.65054 18.7105 9.55516 18.6402 9.48483C18.5699 9.41451 18.4745 9.375 18.3751 9.375C18.2756 9.375 18.1802 9.41451 18.1099 9.48483C18.0396 9.55516 18.0001 9.65054 18.0001 9.75V10.8634C17.9634 10.9596 17.6987 11.1681 17.4573 11.2896C17.4129 11.3114 17.3732 11.3418 17.3406 11.379C17.3079 11.4162 17.283 11.4595 17.2671 11.5064C17.2513 11.5532 17.2449 11.6028 17.2483 11.6522C17.2517 11.7016 17.2649 11.7498 17.287 11.794C17.3092 11.8383 17.3399 11.8777 17.3773 11.9101C17.4148 11.9424 17.4582 11.9671 17.5053 11.9825C17.5523 11.998 17.6019 12.004 17.6512 12.0002C17.7006 11.9964 17.7487 11.9829 17.7928 11.9604C18.0026 11.856 18.198 11.7248 18.374 11.5702C18.551 11.7253 18.7475 11.8566 18.9586 11.9609C19.0476 12.0051 19.1505 12.0122 19.2448 11.9805C19.339 11.9488 19.4168 11.881 19.4611 11.792C19.5054 11.703 19.5125 11.6001 19.4809 11.5058C19.4493 11.4115 19.3815 11.3337 19.2925 11.2894H19.2923Z" fill="#7E8589"/>
<path d="M18.375 9.375C17.8878 9.375 17.625 9.76144 17.625 10.125C17.624 10.2245 17.6626 10.3202 17.7322 10.3913C17.8018 10.4623 17.8968 10.5028 17.9962 10.5038C18.0957 10.5048 18.1915 10.4662 18.2625 10.3966C18.3336 10.327 18.374 10.232 18.375 10.1325C18.375 10.1336 18.375 10.1347 18.3753 10.1356C18.3753 10.1335 18.3753 10.1317 18.375 10.1302C18.3747 10.1287 18.375 10.1268 18.375 10.125C18.375 10.2245 18.4145 10.3198 18.4849 10.3902C18.5552 10.4605 18.6506 10.5 18.75 10.5C18.8495 10.5 18.9449 10.4605 19.0152 10.3902C19.0855 10.3198 19.125 10.2245 19.125 10.125C19.125 9.76144 18.8622 9.375 18.375 9.375Z" fill="#7E8589"/>
</g>
<defs>
<clipPath id="clip0_680_14816">
<rect width="24" height="24" fill="white"/>
</clipPath>
</defs>
</svg>
