<svg width="16" height="16" viewBox="0 0 16 16" fill="none" xmlns="http://www.w3.org/2000/svg">
<g clip-path="url(#clip0_586_10215)">
<path d="M14.5714 6.57143H9.71429C9.63851 6.57143 9.56584 6.54133 9.51226 6.48775C9.45867 6.43416 9.42857 6.36149 9.42857 6.28571V1.42857C9.42857 0.639643 8.78893 0 8 0C7.21107 0 6.57143 0.639643 6.57143 1.42857V6.28571C6.57143 6.36149 6.54133 6.43416 6.48775 6.48775C6.43416 6.54133 6.36149 6.57143 6.28571 6.57143H1.42857C0.639643 6.57143 0 7.21107 0 8C0 8.78893 0.639643 9.42857 1.42857 9.42857H6.28571C6.36149 9.42857 6.43416 9.45867 6.48775 9.51226C6.54133 9.56584 6.57143 9.63851 6.57143 9.71429V14.5714C6.57143 15.3604 7.21107 16 8 16C8.78893 16 9.42857 15.3604 9.42857 14.5714V9.71429C9.42857 9.63851 9.45867 9.56584 9.51226 9.51226C9.56584 9.45867 9.63851 9.42857 9.71429 9.42857H14.5714C15.3604 9.42857 16 8.78893 16 8C16 7.21107 15.3604 6.57143 14.5714 6.57143Z" fill="#8A8A8A"/>
</g>
<defs>
<clipPath id="clip0_586_10215">
<rect width="16" height="16" fill="white"/>
</clipPath>
</defs>
</svg>
