<svg width="24" height="24" viewBox="0 0 24 24" fill="none" xmlns="http://www.w3.org/2000/svg">
<g clip-path="url(#clip0_680_14538)">
<path d="M13.125 16.1378V23.625H0.375V16.1378C0.374964 15.4859 0.587214 14.8519 0.979642 14.3314C1.37207 13.811 1.92332 13.4325 2.55 13.2532L5.625 12.375H7.875L10.95 13.2532C11.5767 13.4325 12.1279 13.811 12.5204 14.3314C12.9128 14.8519 13.125 15.4859 13.125 16.1378Z" fill="#8A8A8A"/>
<path d="M3.675 13.2532L6.75 12.375H5.625L2.55 13.2532C1.92332 13.4325 1.37207 13.811 0.979642 14.3314C0.587214 14.8519 0.374964 15.4859 0.375 16.1378V23.625H1.5V16.1378C1.49996 15.4859 1.71221 14.8519 2.10464 14.3314C2.49707 13.811 3.04832 13.4325 3.675 13.2532Z" fill="#373737"/>
<path d="M7.875 0.375H5.625C4.82935 0.375 4.06629 0.691071 3.50368 1.25368C2.94107 1.81629 2.625 2.57935 2.625 3.375V6.75H10.875V3.375C10.875 2.57935 10.5589 1.81629 9.99632 1.25368C9.43371 0.691071 8.67065 0.375 7.875 0.375Z" fill="#D6E4E8"/>
<path d="M6.75 0.375H5.625C4.82935 0.375 4.06629 0.691071 3.50368 1.25368C2.94107 1.81629 2.625 2.57935 2.625 3.375V6.75H3.75V3.375C3.75 2.57935 4.06607 1.81629 4.62868 1.25368C5.19129 0.691071 5.95435 0.375 6.75 0.375Z" fill="#BACED3"/>
<path d="M5.625 10.5H7.875V13.125H5.625V10.5Z" fill="#FFC48F"/>
<path d="M6.75 11.625C5.85489 11.625 4.99645 11.2694 4.36351 10.6365C3.73058 10.0036 3.375 9.14511 3.375 8.25V5.625L3.53737 5.46263C3.92138 5.07798 4.19359 4.59617 4.32487 4.06875L4.5 3.375C5.95833 3.875 7.54167 3.875 9 3.375L9.17362 4.06875C9.30491 4.59617 9.57712 5.07798 9.96112 5.46263L10.125 5.625V8.25C10.125 9.14511 9.76942 10.0036 9.13649 10.6365C8.50355 11.2694 7.64511 11.625 6.75 11.625Z" fill="#FFC48F"/>
<path d="M3.375 5.625V7.875C3.07663 7.875 2.79048 7.75647 2.5795 7.5455C2.36853 7.33452 2.25 7.04837 2.25 6.75C2.25 6.45163 2.36853 6.16548 2.5795 5.9545C2.79048 5.74353 3.07663 5.625 3.375 5.625Z" fill="#E59A5C"/>
<path d="M10.125 7.875V5.625C10.4234 5.625 10.7095 5.74353 10.9205 5.9545C11.1315 6.16548 11.25 6.45163 11.25 6.75C11.25 7.04837 11.1315 7.33452 10.9205 7.5455C10.7095 7.75647 10.4234 7.875 10.125 7.875Z" fill="#FFC48F"/>
<path d="M6.75 13.125L5.625 12L4.875 12.75L5.625 14.625L6.75 13.125ZM6.75 13.125L7.875 12L8.625 12.75L7.875 14.625L6.75 13.125Z" fill="#373737"/>
<path d="M9.00006 10.1251C8.30368 10.2458 7.28181 10.1967 6.75006 9.75009C6.21831 10.1967 5.19643 10.2458 4.50006 10.1251C4.49693 9.78033 4.6181 9.44597 4.84136 9.18325C5.06463 8.92052 5.37506 8.74701 5.71581 8.69447C6.4022 8.60184 7.09792 8.60184 7.78431 8.69447C8.12506 8.74701 8.43549 8.92052 8.65876 9.18325C8.88202 9.44597 9.00318 9.78033 9.00006 10.1251Z" fill="#D6E4E8"/>
<path d="M17.25 4.125C18.2855 4.125 19.125 3.28553 19.125 2.25C19.125 1.21447 18.2855 0.375 17.25 0.375C16.2145 0.375 15.375 1.21447 15.375 2.25C15.375 3.28553 16.2145 4.125 17.25 4.125Z" fill="#D6E4E8"/>
<path d="M16.5 2.25006C16.5011 1.85238 16.6289 1.46537 16.8649 1.1453C17.1009 0.825235 17.4329 0.588783 17.8125 0.470315C17.5551 0.388567 17.283 0.363529 17.0149 0.396921C16.7469 0.430313 16.4892 0.521343 16.2597 0.663756C16.0302 0.806168 15.8342 0.996588 15.6852 1.22193C15.5363 1.44727 15.4379 1.70219 15.3968 1.96917C15.3557 2.23615 15.3729 2.50886 15.4472 2.76856C15.5215 3.02826 15.6511 3.2688 15.8272 3.47364C16.0033 3.67848 16.2217 3.84277 16.4673 3.95522C16.7129 4.06767 16.9799 4.12561 17.25 4.12506C17.4413 4.12239 17.6311 4.09027 17.8125 4.02981C17.4329 3.91135 17.1009 3.67489 16.8649 3.35483C16.6289 3.03476 16.5011 2.64775 16.5 2.25006Z" fill="#BACED3"/>
<path d="M12.9375 6.02662C12.8414 6.76453 12.7788 7.50642 12.75 8.25H21.75C21.7189 7.49213 21.6585 6.75 21.5625 6.02662C21.4235 4.98137 20.9096 4.02218 20.1163 3.32749C19.3231 2.6328 18.3045 2.24989 17.25 2.25C16.1955 2.24989 15.1769 2.6328 14.3837 3.32749C13.5904 4.02218 13.0765 4.98137 12.9375 6.02662Z" fill="#D6E4E8"/>
<path d="M23.625 17.6378V23.625H10.875V17.6378C10.875 16.9859 11.0872 16.3519 11.4796 15.8314C11.8721 15.311 12.4233 14.9325 13.05 14.7532L16.125 13.875H18.375L21.45 14.7532C22.0767 14.9325 22.6279 15.311 23.0204 15.8314C23.4128 16.3519 23.625 16.9859 23.625 17.6378Z" fill="#E5B0EC"/>
<path d="M14.175 14.7532L17.25 13.875H16.125L13.05 14.7532C12.4233 14.9325 11.8721 15.311 11.4796 15.8314C11.0872 16.3519 10.875 16.9859 10.875 17.6378V23.625H12V17.6378C12 16.9859 12.2122 16.3519 12.6046 15.8314C12.9971 15.311 13.5483 14.9325 14.175 14.7532Z" fill="#EAC7EF"/>
<path d="M16.125 12H18.375V13.875C18.375 14.1734 18.2565 14.4595 18.0455 14.6705C17.8345 14.8815 17.5484 15 17.25 15C16.9516 15 16.6655 14.8815 16.4545 14.6705C16.2435 14.4595 16.125 14.1734 16.125 13.875V12Z" fill="#FFC48F"/>
<path d="M17.25 13.125C16.3549 13.125 15.4965 12.7694 14.8635 12.1365C14.2306 11.5036 13.875 10.6451 13.875 9.75V7.125H15.5036C16.8619 7.12497 18.1645 6.58541 19.125 5.625L20.625 7.125V9.75C20.625 10.6451 20.2694 11.5036 19.6365 12.1365C19.0036 12.7694 18.1451 13.125 17.25 13.125Z" fill="#FFC48F"/>
<path d="M17.8125 2.29058C17.2466 2.21245 16.6708 2.24737 16.1185 2.39332C15.5662 2.53928 15.0484 2.79335 14.595 3.14084C14.1416 3.48834 13.7616 3.92233 13.4771 4.4177C13.1926 4.91307 13.0092 5.45996 12.9375 6.0267C12.8414 6.76461 12.7788 7.5065 12.75 8.25008H13.875C13.9061 7.4922 13.9665 6.75008 14.0625 6.0267C14.1892 5.07803 14.6254 4.19767 15.3034 3.52216C15.9814 2.84665 16.8634 2.41374 17.8125 2.29058Z" fill="#BACED3"/>
<path d="M15.0001 9.75V7.125H13.8751V9.75C13.8724 10.2415 13.9776 10.7276 14.1835 11.174C14.3893 11.6204 14.6907 12.0161 15.0662 12.3332C15.4418 12.6503 15.8824 12.881 16.357 13.0091C16.8315 13.1372 17.3284 13.1594 17.8126 13.0744C17.0265 12.9419 16.3128 12.5353 15.798 11.9268C15.2832 11.3183 15.0005 10.5471 15.0001 9.75Z" fill="#E59A5C"/>
<path d="M13.875 7.125V9.375C13.5766 9.375 13.2905 9.25647 13.0795 9.0455C12.8685 8.83452 12.75 8.54837 12.75 8.25C12.75 7.95163 12.8685 7.66548 13.0795 7.4545C13.2905 7.24353 13.5766 7.125 13.875 7.125ZM20.625 9.375V7.125C20.9234 7.125 21.2095 7.24353 21.4205 7.4545C21.6315 7.66548 21.75 7.95163 21.75 8.25C21.75 8.54837 21.6315 8.83452 21.4205 9.0455C21.2095 9.25647 20.9234 9.375 20.625 9.375ZM21.375 19.8795H23.625V23.625H21.375V19.8795ZM10.875 19.8795H13.125V23.625H10.875V19.8795Z" fill="#FFC48F"/>
<path d="M4.50005 8.25V5.625L4.66243 5.46263C5.04643 5.07798 5.31864 4.59617 5.44993 4.06875L5.5568 3.64238C5.19845 3.57939 4.84524 3.49002 4.50005 3.375L4.32643 4.06875C4.19514 4.59617 3.92293 5.07798 3.53893 5.46263L3.37505 5.625V8.25C3.37236 8.74152 3.47764 9.22764 3.68348 9.674C3.88931 10.1204 4.19066 10.5161 4.56623 10.8332C4.94181 11.1503 5.38244 11.381 5.85699 11.5091C6.33154 11.6372 6.82844 11.6594 7.31255 11.5744C6.52654 11.4419 5.81284 11.0353 5.29801 10.4268C4.78318 9.81828 4.50048 9.04709 4.50005 8.25ZM10.8751 19.875H12.0001V23.6205H10.8751V19.875ZM21.375 19.875H22.5V23.6205H21.375V19.875Z" fill="#E59A5C"/>
<path d="M4.87158 7.125C4.97104 7.125 5.06642 7.08549 5.13675 7.01517C5.20707 6.94484 5.24658 6.84946 5.24658 6.75V6.375C5.24658 6.27554 5.20707 6.18016 5.13675 6.10983C5.06642 6.03951 4.97104 6 4.87158 6C4.77213 6 4.67674 6.03951 4.60642 6.10983C4.53609 6.18016 4.49658 6.27554 4.49658 6.375V6.75C4.49658 6.84946 4.53609 6.94484 4.60642 7.01517C4.67674 7.08549 4.77213 7.125 4.87158 7.125ZM8.62158 7.125C8.72104 7.125 8.81642 7.08549 8.88675 7.01517C8.95707 6.94484 8.99658 6.84946 8.99658 6.75V6.375C8.99658 6.27554 8.95707 6.18016 8.88675 6.10983C8.81642 6.03951 8.72104 6 8.62158 6C8.52213 6 8.42674 6.03951 8.35642 6.10983C8.28609 6.18016 8.24658 6.27554 8.24658 6.375V6.75C8.24658 6.84946 8.28609 6.94484 8.35642 7.01517C8.42674 7.08549 8.52213 7.125 8.62158 7.125Z" fill="#373737"/>
<path d="M18.375 8.99991C18.3011 8.99985 18.2288 8.97794 18.1673 8.93691C17.9047 8.73409 17.5822 8.62407 17.2504 8.62407C16.9186 8.62407 16.5961 8.73409 16.3335 8.93691C16.2508 8.99211 16.1495 9.01218 16.052 8.9927C15.9544 8.97322 15.8686 8.91578 15.8134 8.83304C15.7582 8.75029 15.7382 8.649 15.7576 8.55146C15.7771 8.45392 15.8345 8.36811 15.9173 8.31291C16.304 8.0295 16.771 7.87671 17.2504 7.87671C17.7299 7.87671 18.1968 8.0295 18.5835 8.31291C18.6505 8.35758 18.7014 8.42263 18.7285 8.49843C18.7557 8.57424 18.7577 8.65677 18.7343 8.73382C18.711 8.81087 18.6634 8.87835 18.5987 8.92627C18.534 8.97419 18.4556 9.00001 18.375 8.99991Z" fill="#373737"/>
<path d="M15.6863 8.83124C15.6523 8.88283 15.6061 8.92522 15.5518 8.95466C15.4975 8.9841 15.4368 8.99967 15.375 8.99999C15.3013 9.00086 15.2291 8.97856 15.1688 8.93624L13.875 8.07374V7.17749L15.5812 8.31374C15.6224 8.34056 15.6579 8.37531 15.6855 8.41596C15.7131 8.45661 15.7323 8.50234 15.7421 8.5505C15.7519 8.59866 15.752 8.64829 15.7424 8.69648C15.7328 8.74468 15.7137 8.79049 15.6863 8.83124ZM18.8137 8.83124C18.8477 8.88283 18.8939 8.92522 18.9482 8.95466C19.0025 8.9841 19.0632 8.99967 19.125 8.99999C19.1987 9.00086 19.2709 8.97856 19.3312 8.93624L20.625 8.07374V7.17749L18.9188 8.31374C18.8776 8.34056 18.8421 8.37531 18.8145 8.41596C18.7869 8.45661 18.7677 8.50234 18.7579 8.5505C18.7481 8.59866 18.748 8.64829 18.7576 8.69648C18.7672 8.74468 18.7863 8.79049 18.8137 8.83124Z" fill="#373737"/>
<path d="M15.75 9.375C16.1642 9.375 16.5 9.03921 16.5 8.625C16.5 8.21079 16.1642 7.875 15.75 7.875C15.3358 7.875 15 8.21079 15 8.625C15 9.03921 15.3358 9.375 15.75 9.375Z" fill="#8A8A8A"/>
<path d="M18.75 9.375C19.1642 9.375 19.5 9.03921 19.5 8.625C19.5 8.21079 19.1642 7.875 18.75 7.875C18.3358 7.875 18 8.21079 18 8.625C18 9.03921 18.3358 9.375 18.75 9.375Z" fill="#8A8A8A"/>
<path d="M3 16.875V23.625H2.25V16.875C2.25 16.7755 2.28951 16.6802 2.35984 16.6098C2.43016 16.5395 2.52554 16.5 2.625 16.5C2.72446 16.5 2.81984 16.5395 2.89016 16.6098C2.96049 16.6802 3 16.7755 3 16.875Z" fill="#373737"/>
</g>
<defs>
<clipPath id="clip0_680_14538">
<rect width="24" height="24" fill="white"/>
</clipPath>
</defs>
</svg>
