<svg width="24" height="24" viewBox="0 0 24 24" fill="none" xmlns="http://www.w3.org/2000/svg">
<g clip-path="url(#clip0_535_11009)">
<path d="M4.87158 7.125C4.97104 7.125 5.06642 7.08549 5.13675 7.01517C5.20707 6.94484 5.24658 6.84946 5.24658 6.75V6.375C5.24658 6.27554 5.20707 6.18016 5.13675 6.10983C5.06642 6.03951 4.97104 6 4.87158 6C4.77213 6 4.67674 6.03951 4.60642 6.10983C4.53609 6.18016 4.49658 6.27554 4.49658 6.375V6.75C4.49658 6.84946 4.53609 6.94484 4.60642 7.01517C4.67674 7.08549 4.77213 7.125 4.87158 7.125ZM8.62158 7.125C8.72104 7.125 8.81642 7.08549 8.88675 7.01517C8.95707 6.94484 8.99658 6.84946 8.99658 6.75V6.375C8.99658 6.27554 8.95707 6.18016 8.88675 6.10983C8.81642 6.03951 8.72104 6 8.62158 6C8.52213 6 8.42674 6.03951 8.35642 6.10983C8.28609 6.18016 8.24658 6.27554 8.24658 6.375V6.75C8.24658 6.84946 8.28609 6.94484 8.35642 7.01517C8.42674 7.08549 8.52213 7.125 8.62158 7.125Z" fill="#373737"/>
<path d="M21.555 14.3925L18.7533 13.5919V13.1846C19.4214 12.8924 19.9899 12.4121 20.3894 11.8021C20.789 11.1922 21.0023 10.4791 21.0033 9.75V9.69675C21.3244 9.61386 21.6089 9.42692 21.8125 9.16516C22.016 8.9034 22.1271 8.58158 22.1283 8.25V8.23425C22.0986 7.4794 22.0351 6.72627 21.9378 5.97713C21.8375 5.23788 21.5637 4.53284 21.1389 3.91962C20.714 3.3064 20.1501 2.80239 19.4932 2.44875C19.4996 2.38269 19.503 2.31637 19.5033 2.25C19.5033 1.65326 19.2663 1.08097 18.8443 0.65901C18.4224 0.237053 17.8501 0 17.2533 0C16.6566 0 16.0843 0.237053 15.6623 0.65901C15.2404 1.08097 15.0033 1.65326 15.0033 2.25C15.0033 2.31638 15.0071 2.38275 15.0127 2.44875C14.3561 2.80262 13.7924 3.30671 13.3677 3.9199C12.943 4.53309 12.6692 5.238 12.5688 5.97713C12.4715 6.72638 12.408 7.47964 12.3787 8.23462V8.25C12.3799 8.58158 12.491 8.9034 12.6946 9.16516C12.8981 9.42692 13.1827 9.61386 13.5037 9.69675V9.75C13.5047 10.4791 13.718 11.1922 14.1176 11.8021C14.5172 12.4121 15.0857 12.8924 15.7537 13.1846V13.5919L13.0005 14.3794C12.5593 13.6576 11.8635 13.1274 11.0505 12.8936L8.59421 12.192L8.13746 11.7349L8.13258 11.7315C8.82936 11.4538 9.42697 10.9737 9.84833 10.3532C10.2697 9.73263 10.4955 9.00008 10.4966 8.25V8.19675C10.7444 8.13467 10.972 8.00975 11.1575 7.83405C11.343 7.65835 11.48 7.4378 11.5554 7.19369C11.6308 6.94959 11.642 6.69017 11.5879 6.44048C11.5338 6.19079 11.4162 5.95926 11.2466 5.76825V3.375C11.2456 2.4802 10.8897 1.62233 10.257 0.989611C9.62425 0.356891 8.76638 0.00099257 7.87158 0L5.62158 0C4.72678 0.00099257 3.86891 0.356891 3.23619 0.989611C2.60347 1.62233 2.24757 2.4802 2.24658 3.375V5.76825C2.07692 5.95926 1.95937 6.19079 1.90527 6.44048C1.85117 6.69017 1.86235 6.94959 1.93774 7.19369C2.01313 7.4378 2.15017 7.65835 2.33565 7.83405C2.52112 8.00975 2.74876 8.13467 2.99658 8.19675V8.25C2.99783 9.0003 3.2239 9.733 3.64561 10.3536C4.06732 10.9741 4.66533 11.4541 5.36246 11.7315L5.35758 11.7349L4.90008 12.1912L2.44496 12.8925C1.74089 13.0961 1.12176 13.5223 0.680353 14.1074C0.238946 14.6925 -0.000962992 15.4048 -0.00341797 16.1378V23.625C-0.00341797 23.7245 0.0360909 23.8198 0.106417 23.8902C0.176743 23.9605 0.272126 24 0.371582 24H23.6283C23.7278 24 23.8232 23.9605 23.8935 23.8902C23.9638 23.8198 24.0033 23.7245 24.0033 23.625V17.6378C24.0009 16.9048 23.761 16.1925 23.3196 15.6074C22.8782 15.0223 22.259 14.5961 21.555 14.3925ZM23.2533 17.6378V19.5045H21.3783C21.2789 19.5045 21.1835 19.544 21.1132 19.6143C21.0428 19.6847 21.0033 19.78 21.0033 19.8795V23.25H13.5033V19.875C13.5033 19.7755 13.4638 19.6802 13.3935 19.6098C13.3232 19.5395 13.2278 19.5 13.1283 19.5H11.2533V17.6378C11.2551 17.0678 11.4415 16.5138 11.7847 16.0588C12.1279 15.6038 12.6093 15.2723 13.1568 15.114L15.837 14.3483C15.9345 14.6469 16.1241 14.9071 16.3784 15.0916C16.6328 15.276 16.9389 15.3754 17.2531 15.3754C17.5674 15.3754 17.8735 15.276 18.1279 15.0916C18.3822 14.9071 18.5717 14.6469 18.6693 14.3483L21.3495 15.1125C21.8972 15.2709 22.3789 15.6026 22.7222 16.0579C23.0655 16.5132 23.2518 17.0675 23.2533 17.6378ZM11.2533 20.25H12.7533V23.2455H11.2533V20.25ZM19.7085 8.03775C19.6097 7.87508 19.471 7.74031 19.3056 7.6462C19.1402 7.55209 18.9535 7.50176 18.7632 7.49995C18.5729 7.49815 18.3853 7.54494 18.2181 7.63591C18.051 7.72687 17.9098 7.85898 17.808 8.01975C17.6375 7.92782 17.4468 7.87969 17.2531 7.87969C17.0595 7.87969 16.8688 7.92782 16.6983 8.01975C16.5965 7.85898 16.4554 7.72685 16.2883 7.63588C16.1211 7.54492 15.9335 7.49812 15.7433 7.49992C15.553 7.50172 15.3663 7.55207 15.2009 7.64618C15.0356 7.7403 14.8969 7.87508 14.7982 8.03775L14.2533 7.67438V7.5H15.507C16.8357 7.50392 18.1202 7.02268 19.1193 6.14663L20.2533 7.28025V7.67438L19.7085 8.03775ZM18.7533 8.25C18.8275 8.25 18.9 8.27199 18.9617 8.3132C19.0233 8.3544 19.0714 8.41297 19.0998 8.48149C19.1282 8.55002 19.1356 8.62542 19.1211 8.69816C19.1067 8.7709 19.0709 8.83772 19.0185 8.89017C18.9661 8.94261 18.8992 8.97832 18.8265 8.99279C18.7537 9.00726 18.6783 8.99984 18.6098 8.97145C18.5413 8.94307 18.4827 8.89501 18.4415 8.83334C18.4003 8.77167 18.3783 8.69917 18.3783 8.625C18.3783 8.52554 18.4178 8.43016 18.4882 8.35983C18.5585 8.28951 18.6539 8.25 18.7533 8.25ZM16.1283 8.625C16.1283 8.69917 16.1063 8.77167 16.0651 8.83334C16.0239 8.89501 15.9654 8.94307 15.8968 8.97145C15.8283 8.99984 15.7529 9.00726 15.6802 8.99279C15.6074 8.97832 15.5406 8.94261 15.4882 8.89017C15.4357 8.83772 15.4 8.7709 15.3855 8.69816C15.3711 8.62542 15.3785 8.55002 15.4069 8.48149C15.4353 8.41297 15.4833 8.3544 15.545 8.3132C15.6067 8.27199 15.6792 8.25 15.7533 8.25C15.8528 8.25 15.9482 8.28951 16.0185 8.35983C16.0888 8.43016 16.1283 8.52554 16.1283 8.625ZM21.0033 8.89913V7.60087C21.116 7.66593 21.2099 7.75919 21.2756 7.87149C21.3414 7.98378 21.3768 8.11126 21.3783 8.24137V8.253C21.3777 8.38408 21.3428 8.51271 21.277 8.62608C21.2112 8.73944 21.1168 8.83359 21.0033 8.89913ZM17.2533 0.75C17.6279 0.751134 17.9884 0.892654 18.2636 1.14662C18.5389 1.40058 18.709 1.74852 18.7402 2.12175C17.7761 1.793 16.7302 1.793 15.7661 2.12175C15.7974 1.74849 15.9675 1.40054 16.2429 1.14659C16.5182 0.892633 16.8788 0.751126 17.2533 0.75ZM17.2533 2.625C18.2161 2.62735 19.1455 2.97796 19.8699 3.61209C20.5943 4.24621 21.0648 5.12103 21.1946 6.075C21.2298 6.342 21.2572 6.62325 21.2838 6.906C21.1321 6.83221 20.9689 6.78503 20.8012 6.7665L19.3938 5.35875C19.3235 5.28845 19.2281 5.24895 19.1287 5.24895C19.0293 5.24895 18.9339 5.28845 18.8636 5.35875C18.4239 5.8011 17.9008 6.15184 17.3246 6.39065C16.7485 6.62946 16.1307 6.7516 15.507 6.75H13.8783C13.6507 6.75132 13.4264 6.80508 13.2228 6.90713C13.2495 6.62475 13.2768 6.34462 13.3121 6.07612C13.4416 5.12201 13.9119 4.24698 14.6363 3.61264C15.3607 2.97829 16.2905 2.62748 17.2533 2.625ZM13.1283 8.253V8.24212C13.1298 8.11188 13.1651 7.98425 13.2309 7.87181C13.2966 7.75937 13.3905 7.66599 13.5033 7.60087V8.89913C13.3899 8.83354 13.2956 8.73938 13.2299 8.62601C13.1641 8.51265 13.1289 8.38404 13.1283 8.253ZM14.2533 9.75V8.5755L14.6501 8.84025C14.7 9.09908 14.8395 9.33208 15.044 9.49839C15.2486 9.66469 15.5051 9.7537 15.7687 9.74981C16.0323 9.74592 16.2861 9.64938 16.4856 9.4771C16.6851 9.30483 16.8177 9.06782 16.86 8.80762C16.9089 8.75127 16.9694 8.70609 17.0373 8.67512C17.1053 8.64416 17.1791 8.62813 17.2537 8.62813C17.3284 8.62813 17.4021 8.64416 17.4701 8.67512C17.538 8.70609 17.5985 8.75127 17.6475 8.80762C17.6898 9.06781 17.8224 9.30479 18.0219 9.47703C18.2215 9.64927 18.4753 9.74576 18.7389 9.74961C19.0025 9.75346 19.259 9.66441 19.4635 9.49807C19.668 9.33173 19.8074 9.09871 19.8573 8.83988L20.2541 8.57512V9.75C20.2541 10.5456 19.938 11.3087 19.3754 11.8713C18.8128 12.4339 18.0497 12.75 17.2541 12.75C16.4584 12.75 15.6954 12.4339 15.1328 11.8713C14.5702 11.3087 14.2541 10.5456 14.2541 9.75H14.2533ZM17.2533 13.5C17.5052 13.5003 17.7565 13.4751 18.0033 13.425V13.875C18.0033 14.0739 17.9243 14.2647 17.7837 14.4053C17.643 14.546 17.4522 14.625 17.2533 14.625C17.0544 14.625 16.8637 14.546 16.723 14.4053C16.5823 14.2647 16.5033 14.0739 16.5033 13.875V13.425C16.7502 13.4752 17.0014 13.5003 17.2533 13.5ZM8.18133 12.8404L7.77146 13.8664L7.24196 13.1603L7.87158 12.5303L8.18133 12.8404ZM6.74658 10.2045C7.23203 10.452 7.77205 10.5731 8.31671 10.5566C8.43933 10.5566 8.56046 10.551 8.67858 10.5416C8.13864 10.9996 7.45364 11.2509 6.74565 11.2509C6.03765 11.2509 5.35265 10.9996 4.81271 10.5416C5.4763 10.6163 6.14741 10.4993 6.74658 10.2045ZM4.92108 9.79838C4.97781 9.60906 5.08711 9.43974 5.23628 9.31009C5.38544 9.18045 5.56834 9.0958 5.76371 9.066C6.41617 8.97862 7.07737 8.97862 7.72983 9.066C7.9252 9.0957 8.1081 9.18031 8.25723 9.30998C8.40635 9.43964 8.51554 9.60902 8.57208 9.79838C8.02123 9.87121 7.46206 9.75273 6.98808 9.46275C6.92051 9.40594 6.83505 9.37479 6.74677 9.37479C6.65849 9.37479 6.57303 9.40594 6.50546 9.46275C6.03118 9.75233 5.47204 9.87078 4.92108 9.79838ZM10.4966 7.39838V6.10087C10.6104 6.16675 10.7049 6.26141 10.7706 6.37534C10.8363 6.48927 10.8709 6.61848 10.8709 6.75C10.8709 6.88152 10.8363 7.01073 10.7706 7.12466C10.7049 7.23859 10.6104 7.33325 10.4966 7.39913V7.39838ZM5.62158 0.75H7.87158C8.56753 0.750794 9.23475 1.02761 9.72686 1.51972C10.219 2.01183 10.4958 2.67905 10.4966 3.375V5.30325C10.4301 5.28656 10.3626 5.27465 10.2945 5.26762L10.2247 5.19712C9.88805 4.861 9.64926 4.43955 9.53396 3.978L9.36033 3.28425C9.34788 3.23409 9.3252 3.18705 9.29371 3.14607C9.26222 3.10509 9.2226 3.07106 9.17733 3.04612C9.13196 3.02097 9.08183 3.00561 9.03015 3.00102C8.97848 2.99644 8.92642 3.00273 8.87733 3.0195C7.49549 3.49049 5.99655 3.49049 4.61471 3.0195C4.56562 3.00271 4.51356 2.9964 4.46188 3.00099C4.41021 3.00557 4.36007 3.02095 4.31471 3.04612C4.26937 3.07102 4.22968 3.10503 4.19812 3.14601C4.16656 3.18699 4.14382 3.23406 4.13133 3.28425L3.95846 3.978C3.84292 4.43946 3.60417 4.86085 3.26771 5.19712L3.19758 5.26762C3.12932 5.27468 3.06165 5.28659 2.99508 5.30325V3.375C2.99598 2.67882 3.27303 2.01143 3.76544 1.5193C4.25786 1.02717 4.9254 0.750496 5.62158 0.75ZM2.62158 6.75C2.62165 6.61841 2.65634 6.48916 2.72216 6.37522C2.78798 6.26128 2.88263 6.16667 2.99658 6.10087V7.39913C2.88263 7.33333 2.78798 7.23872 2.72216 7.12478C2.65634 7.01084 2.62165 6.88159 2.62158 6.75ZM3.74658 8.25V5.78025L3.79946 5.72738C4.23202 5.29499 4.53895 4.75318 4.68746 4.15987L4.76471 3.849C6.06061 4.21499 7.43255 4.21499 8.72846 3.849L8.80646 4.15987C8.95465 4.75312 9.26149 5.29485 9.69408 5.727L9.74658 5.77987V8.25C9.74664 8.78192 9.60421 9.30415 9.33408 9.76237C9.2636 9.39681 9.08149 9.06208 8.81285 8.80432C8.54421 8.54656 8.20225 8.37844 7.83408 8.32312C7.11359 8.226 6.38332 8.226 5.66283 8.32312C5.29466 8.37844 4.9527 8.54656 4.68406 8.80432C4.41542 9.06208 4.23331 9.39681 4.16283 9.76237C3.89141 9.30451 3.74768 8.78227 3.74658 8.25ZM6.74658 12C6.96658 11.9989 7.18605 11.9785 7.40246 11.9389L6.74658 12.5947L6.09071 11.9389C6.30711 11.9785 6.52659 11.9989 6.74658 12ZM5.62158 12.5303L6.25158 13.1603L5.72208 13.8664L5.31183 12.8404L5.62158 12.5303ZM0.746582 16.1378C0.748085 15.5675 0.934456 15.0132 1.27773 14.5579C1.621 14.1026 2.10267 13.7709 2.65046 13.6125L4.59146 13.0579L5.27321 14.7626C5.29801 14.8246 5.33889 14.8788 5.39162 14.9196C5.44436 14.9605 5.50704 14.9866 5.57321 14.9951C5.58949 14.9974 5.6059 14.9985 5.62233 14.9985C5.68055 14.9985 5.73797 14.9849 5.79004 14.9589C5.84211 14.9329 5.8874 14.8951 5.92233 14.8485L6.74733 13.7482L7.57233 14.8485C7.60726 14.8951 7.65256 14.9329 7.70463 14.9589C7.7567 14.9849 7.81412 14.9985 7.87233 14.9985C7.88876 14.9985 7.90518 14.9974 7.92146 14.9951C7.98762 14.9866 8.05031 14.9605 8.10304 14.9196C8.15578 14.8788 8.19666 14.8246 8.22146 14.7626L8.90321 13.0579L10.8427 13.6125C11.433 13.7823 11.945 14.1539 12.2895 14.6625C11.7515 14.9514 11.3016 15.3802 10.9872 15.9036C10.6728 16.427 10.5056 17.0257 10.5033 17.6362V23.25H2.99658V16.875C2.99658 16.7755 2.95707 16.6802 2.88675 16.6098C2.81642 16.5395 2.72104 16.5 2.62158 16.5C2.52213 16.5 2.42674 16.5395 2.35642 16.6098C2.28609 16.6802 2.24658 16.7755 2.24658 16.875V23.25H0.746582V16.1378ZM23.2533 23.25H21.7533V20.2545H23.2533V23.25Z" fill="#373737"/>
<path d="M18.2685 11.8901C18.3388 11.8197 18.3782 11.7242 18.3782 11.6247C18.3781 11.5252 18.3385 11.4298 18.2681 11.3595C18.2332 11.3246 18.1918 11.297 18.1463 11.2782C18.1008 11.2594 18.052 11.2497 18.0027 11.2498C17.9032 11.2498 17.8078 11.2894 17.7375 11.3598C17.3827 11.7131 17.1198 11.7123 16.7677 11.3598C16.697 11.2915 16.6023 11.2537 16.5039 11.2546C16.4056 11.2554 16.3116 11.2949 16.242 11.3644C16.1725 11.4339 16.1331 11.528 16.1322 11.6263C16.1314 11.7246 16.1692 11.8194 16.2375 11.8901C16.36 12.0412 16.5147 12.1631 16.6903 12.2468C16.866 12.3305 17.058 12.3739 17.2526 12.3739C17.4471 12.3739 17.6392 12.3305 17.8149 12.2468C17.9905 12.1631 18.1452 12.0412 18.2677 11.8901H18.2685Z" fill="#373737"/>
</g>
<defs>
<clipPath id="clip0_535_11009">
<rect width="24" height="24" fill="white"/>
</clipPath>
</defs>
</svg>
