<svg width="20" height="20" viewBox="0 0 20 20" fill="none" xmlns="http://www.w3.org/2000/svg">
<g clip-path="url(#clip0_1782_22532)">
<path d="M0.622192 13.4778C2.03497 17.2861 5.69997 20 9.99997 20C14.3 20 17.965 17.2861 19.3777 13.4778L9.99997 12.6089L0.622192 13.4778Z" fill="#FFDA44"/>
<path d="M9.99997 0C5.69997 0 2.03497 2.71389 0.622192 6.52222L9.99997 7.39111L19.3777 6.52167C17.965 2.71389 14.3 0 9.99997 0Z" fill="#3D3D3D"/>
<path d="M0.622227 6.52222C0.209598 7.63524 -0.00111219 8.81296 4.95579e-06 10C-0.00117829 11.1872 0.209533 12.3651 0.622227 13.4783H19.3778C19.7905 12.3651 20.0012 11.1872 20 10C20.0012 8.81277 19.7905 7.63486 19.3778 6.52167L0.622227 6.52222Z" fill="#D80027"/>
</g>
<defs>
<clipPath id="clip0_1782_22532">
<rect width="20" height="20" fill="white"/>
</clipPath>
</defs>
</svg>
