<svg width="20" height="20" viewBox="0 0 20 20" fill="none" xmlns="http://www.w3.org/2000/svg">
<g clip-path="url(#clip0_1782_22523)">
<path d="M10 20C15.5228 20 20 15.5228 20 10C20 4.47715 15.5228 0 10 0C4.47715 0 0 4.47715 0 10C0 15.5228 4.47715 20 10 20Z" fill="#012169"/>
<path d="M17.7053 3.62733L9.99995 8.25067L2.29462 3.62733C1.65375 4.40229 1.13366 5.26964 0.751953 6.2L7.08529 10L0.751953 13.8C1.13337 14.7306 1.65324 15.5981 2.29395 16.3733L9.99995 11.7493L17.706 16.3727C18.3467 15.5975 18.8665 14.7299 19.248 13.7993L12.9146 9.99933L19.248 6.19933C18.8662 5.26921 18.3461 4.40209 17.7053 3.62733Z" fill="white"/>
<path d="M1.99197 15.9713L10.9713 10.5833L18.566 15.14C18.7382 14.8536 18.8959 14.5588 19.0386 14.2567L10.972 9.41667L18.566 4.86067C18.3931 4.57356 18.2071 4.29622 18.008 4.02867L9.02797 9.41667L1.4333 4.86067C1.26219 5.146 1.10486 5.44022 0.961304 5.74333L9.02797 10.5833L1.4333 15.14C1.60552 15.4263 1.79198 15.7037 1.99197 15.9713Z" fill="#C8102E"/>
<path d="M12.5 0.328004C10.862 -0.109335 9.13798 -0.109335 7.5 0.328004V7.5H0.328004C-0.109335 9.13798 -0.109335 10.862 0.328004 12.5H7.5V19.672C9.13798 20.1093 10.862 20.1093 12.5 19.672V12.5H19.672C20.1093 10.862 20.1093 9.13798 19.672 7.5H12.5V0.328004Z" fill="white"/>
<path d="M11.5 0.124667C11.0038 0.0455676 10.5024 0.00389452 10 0C9.49758 0.00389452 8.99617 0.0455676 8.5 0.124667V8.5H0.124667C0.0455676 8.99617 0.00389452 9.49758 0 10C0.00389452 10.5024 0.0455676 11.0038 0.124667 11.5H8.5V19.8753C8.99617 19.9544 9.49758 19.9961 10 20C10.5024 19.9961 11.0038 19.9544 11.5 19.8753V11.5H19.8753C19.9544 11.0038 19.9961 10.5024 20 10C19.9961 9.49758 19.9544 8.99617 19.8753 8.5H11.5V0.124667Z" fill="#C8102E"/>
</g>
<defs>
<clipPath id="clip0_1782_22523">
<rect width="20" height="20" fill="white"/>
</clipPath>
</defs>
</svg>
