<svg width="16" height="16" viewBox="0 0 16 16" fill="none" xmlns="http://www.w3.org/2000/svg">
<g clip-path="url(#clip0_799_29191)">
<path d="M14.6667 11.2788V13.2788C14.6674 13.4644 14.6294 13.6482 14.555 13.8183C14.4806 13.9884 14.3715 14.1412 14.2347 14.2667C14.0979 14.3922 13.9364 14.4878 13.7605 14.5472C13.5846 14.6067 13.3983 14.6288 13.2133 14.6121C11.1619 14.3892 9.19134 13.6882 7.46001 12.5654C5.84923 11.5419 4.48356 10.1762 3.46001 8.56543C2.33333 6.82623 1.63217 4.84609 1.41334 2.78543C1.39668 2.60107 1.41859 2.41527 1.47767 2.23985C1.53676 2.06442 1.63172 1.90322 1.75652 1.76651C1.88131 1.6298 2.03321 1.52057 2.20253 1.44578C2.37186 1.37099 2.5549 1.33227 2.74001 1.3321H4.74001C5.06354 1.32891 5.3772 1.44348 5.62251 1.65445C5.86783 1.86542 6.02806 2.15839 6.07334 2.47876C6.15775 3.11881 6.31431 3.74725 6.54001 4.3521C6.6297 4.59071 6.64911 4.85004 6.59594 5.09935C6.54277 5.34866 6.41925 5.5775 6.24001 5.75876L5.39334 6.60543C6.34238 8.27446 7.72431 9.65639 9.39334 10.6054L10.24 9.75876C10.4213 9.57952 10.6501 9.456 10.8994 9.40283C11.1487 9.34965 11.4081 9.36907 11.6467 9.45876C12.2515 9.68446 12.88 9.84101 13.52 9.92543C13.8439 9.97112 14.1396 10.1342 14.351 10.3838C14.5624 10.6333 14.6748 10.9518 14.6667 11.2788Z" stroke="#373737" stroke-width="1.5" stroke-linecap="round" stroke-linejoin="round"/>
</g>
<defs>
<clipPath id="clip0_799_29191">
<rect width="16" height="16" fill="white"/>
</clipPath>
</defs>
</svg>
